<svg width="40" height="34" viewBox="0 0 40 34" fill="none" xmlns="http://www.w3.org/2000/svg">
<mask id="mask0_139_951" style="mask-type:luminance" maskUnits="userSpaceOnUse" x="7" y="0" width="33" height="9">
<path d="M8.74082 3.90428C8.74082 2.4282 9.94223 1.22795 11.4183 1.22795C12.8944 1.22795 14.0946 2.42935 14.0946 3.90428C14.0946 5.3792 12.8932 6.5806 11.4183 6.5806C9.94107 6.5806 8.74082 5.3792 8.74082 3.90428ZM7.51172 3.90428C7.51172 6.0578 9.26362 7.80971 11.4171 7.80971C13.3652 7.80971 14.9798 6.37518 15.2706 4.50786L21.1553 4.51825L24.1363 8.80338H39.1118C39.4511 8.80338 39.7269 8.5287 39.7269 8.1894C39.7269 7.8501 39.4522 7.57543 39.1118 7.57543H24.778L21.797 3.29146L15.2672 3.27992C14.966 1.42299 13.3572 5.70249e-07 11.416 5.70249e-07C9.26362 -0.00115352 7.51172 1.7496 7.51172 3.90428Z" fill="white"/>
</mask>
<g mask="url(#mask0_139_951)">
<path d="M39.728 -0.00219727H7.51172V8.80233H39.728V-0.00219727Z" fill="url(#paint0_linear_139_951)"/>
</g>
<mask id="mask1_139_951" style="mask-type:luminance" maskUnits="userSpaceOnUse" x="16" y="9" width="24" height="9">
<path d="M17.4195 13.5915C17.4195 12.1154 18.6198 10.9151 20.0959 10.9151C21.5719 10.9151 22.7722 12.1165 22.7722 13.5915C22.7722 15.0664 21.5719 16.2678 20.0959 16.2678C18.6198 16.2678 17.4195 15.0664 17.4195 13.5915ZM16.1904 13.5915C16.1904 15.745 17.9423 17.4969 20.0959 17.4969C22.0393 17.4969 23.6516 16.0681 23.9482 14.2054H39.1129C39.4522 14.2054 39.728 13.9308 39.728 13.5915C39.728 13.2522 39.4534 12.9763 39.1129 12.9763H23.9482C23.6516 11.1148 22.0393 9.68604 20.0959 9.68604C17.9423 9.68488 16.1904 11.4368 16.1904 13.5915Z" fill="white"/>
</mask>
<g mask="url(#mask1_139_951)">
<path d="M39.728 9.68604H16.1904V17.4969H39.728V9.68604Z" fill="url(#paint1_linear_139_951)"/>
</g>
<mask id="mask2_139_951" style="mask-type:luminance" maskUnits="userSpaceOnUse" x="0" y="14" width="40" height="10">
<path d="M1.77012 18.5587C1.77012 17.0827 2.97037 15.8824 4.44645 15.8824C5.92252 15.8824 7.12277 17.0827 7.12277 18.5587C7.12277 20.0348 5.92252 21.2351 4.44645 21.2351C2.97037 21.2351 1.77012 20.0348 1.77012 18.5587ZM0.541016 18.5587C0.541016 20.7123 2.29292 22.4642 4.44645 22.4642C6.38993 22.4642 8.00219 21.0343 8.29879 19.1727H12.1581L14.2066 23.2097H24.1709L25.9713 20.4157H39.1118C39.4511 20.4157 39.7269 20.141 39.7269 19.8017C39.7269 19.4624 39.4522 19.1866 39.1118 19.1866H25.3019L23.5016 21.9806H14.9613L12.9117 17.9448H8.29879C8.00219 16.0821 6.38993 14.6533 4.44645 14.6533C2.29292 14.6533 0.541016 16.4052 0.541016 18.5587Z" fill="white"/>
</mask>
<g mask="url(#mask2_139_951)">
<path d="M39.7269 14.6531H0.541016V23.2095H39.7269V14.6531Z" fill="url(#paint2_linear_139_951)"/>
</g>
<mask id="mask3_139_951" style="mask-type:luminance" maskUnits="userSpaceOnUse" x="9" y="24" width="31" height="10">
<path d="M10.4174 29.488C10.4174 28.0119 11.6188 26.8116 13.0937 26.8116C14.5698 26.8116 15.7712 28.0119 15.7712 29.488C15.7712 30.964 14.5698 32.1643 13.0937 32.1643C11.6188 32.1643 10.4174 30.964 10.4174 29.488ZM31.0998 24.9916L28.7708 28.8105H16.938C16.616 26.979 15.0176 25.5814 13.0949 25.5814C10.9414 25.5814 9.18945 27.3333 9.18945 29.4868C9.18945 31.6403 10.9414 33.3922 13.0949 33.3922C15.0603 33.3922 16.6876 31.9312 16.9576 30.0385H29.4621L31.7911 26.2196H39.2707C39.61 26.2196 39.8847 25.9449 39.8847 25.6045C39.8847 25.2652 39.61 24.9905 39.2707 24.9905H31.0998V24.9916Z" fill="white"/>
</mask>
<g mask="url(#mask3_139_951)">
<path d="M39.8826 24.9915H9.18848V33.3932H39.8826V24.9915Z" fill="url(#paint3_linear_139_951)"/>
</g>
<defs>
<linearGradient id="paint0_linear_139_951" x1="23.6199" y1="-0.00219727" x2="23.6199" y2="8.80233" gradientUnits="userSpaceOnUse">
<stop stop-color="#8BB7E2"/>
<stop offset="0.508333" stop-color="#CF95DA"/>
<stop offset="1" stop-color="#CCB8FA"/>
</linearGradient>
<linearGradient id="paint1_linear_139_951" x1="27.9592" y1="9.68604" x2="27.9592" y2="17.4969" gradientUnits="userSpaceOnUse">
<stop stop-color="#8BB7E2"/>
<stop offset="0.508333" stop-color="#CF95DA"/>
<stop offset="1" stop-color="#CCB8FA"/>
</linearGradient>
<linearGradient id="paint2_linear_139_951" x1="20.1339" y1="14.6531" x2="20.1339" y2="23.2095" gradientUnits="userSpaceOnUse">
<stop stop-color="#8BB7E2"/>
<stop offset="0.508333" stop-color="#CF95DA"/>
<stop offset="1" stop-color="#CCB8FA"/>
</linearGradient>
<linearGradient id="paint3_linear_139_951" x1="24.5355" y1="24.9915" x2="24.5355" y2="33.3932" gradientUnits="userSpaceOnUse">
<stop stop-color="#8BB7E2"/>
<stop offset="0.508333" stop-color="#CF95DA"/>
<stop offset="1" stop-color="#CCB8FA"/>
</linearGradient>
</defs>
</svg>
