<svg width="23" height="22" viewBox="0 0 23 22" fill="none" xmlns="http://www.w3.org/2000/svg">
<path d="M21.9756 10.2926C22.0686 10.3854 22.1424 10.4957 22.1927 10.6171C22.243 10.7385 22.2689 10.8687 22.2689 11.0001C22.2689 11.1315 22.243 11.2616 22.1927 11.383C22.1424 11.5044 22.0686 11.6147 21.9756 11.7076L11.9756 21.7076C11.8828 21.8005 11.7725 21.8743 11.6511 21.9246C11.5297 21.975 11.3995 22.0009 11.2681 22.0009C11.1367 22.0009 11.0066 21.975 10.8852 21.9246C10.7638 21.8743 10.6535 21.8005 10.5606 21.7076L0.560634 11.7076C0.372993 11.5199 0.267578 11.2654 0.267578 11.0001C0.267578 10.7347 0.372993 10.4802 0.560634 10.2926C0.748275 10.1049 1.00277 9.99951 1.26813 9.99951C1.5335 9.99951 1.78799 10.1049 1.97563 10.2926L11.2681 19.5863L20.5606 10.2926C20.6535 10.1996 20.7638 10.1258 20.8852 10.0755C21.0066 10.0252 21.1367 9.99928 21.2681 9.99928C21.3996 9.99928 21.5297 10.0252 21.6511 10.0755C21.7725 10.1258 21.8828 10.1996 21.9756 10.2926ZM10.5606 11.7076C10.6535 11.8005 10.7638 11.8743 10.8852 11.9246C11.0066 11.975 11.1367 12.0009 11.2681 12.0009C11.3995 12.0009 11.5297 11.975 11.6511 11.9246C11.7725 11.8743 11.8828 11.8005 11.9756 11.7076L21.9756 1.70757C22.1633 1.51993 22.2687 1.26543 22.2687 1.00007C22.2687 0.734704 22.1633 0.480208 21.9756 0.292568C21.788 0.104927 21.5335 -0.000488276 21.2681 -0.000488281C21.0028 -0.000488286 20.7483 0.104927 20.5606 0.292568L11.2681 9.58632L1.97563 0.292568C1.78799 0.104927 1.5335 -0.000488283 1.26813 -0.000488281C1.00277 -0.000488279 0.748275 0.104927 0.560634 0.292568C0.372993 0.480208 0.267578 0.734704 0.267578 1.00007C0.267578 1.26543 0.372993 1.51993 0.560634 1.70757L10.5606 11.7076Z" fill="#9448C3"/>
</svg>
