<svg width="65" height="64" viewBox="0 0 65 64" fill="none" xmlns="http://www.w3.org/2000/svg">
<rect x="0.484863" width="64" height="64" rx="32" fill="#650B9D"/>
<path d="M41.4849 26H36.9849V25.25C36.9849 24.6533 36.7478 24.081 36.3259 23.659C35.9039 23.2371 35.3316 23 34.7349 23H30.2349C29.6381 23 29.0658 23.2371 28.6439 23.659C28.2219 24.081 27.9849 24.6533 27.9849 25.25V26H23.4849C23.087 26 22.7055 26.158 22.4242 26.4393C22.1429 26.7206 21.9849 27.1022 21.9849 27.5V38C21.9849 38.3978 22.1429 38.7794 22.4242 39.0607C22.7055 39.342 23.087 39.5 23.4849 39.5H41.4849C41.8827 39.5 42.2642 39.342 42.5455 39.0607C42.8268 38.7794 42.9849 38.3978 42.9849 38V27.5C42.9849 27.1022 42.8268 26.7206 42.5455 26.4393C42.2642 26.158 41.8827 26 41.4849 26ZM29.4849 25.25C29.4849 25.0511 29.5639 24.8603 29.7045 24.7197C29.8452 24.579 30.036 24.5 30.2349 24.5H34.7349C34.9338 24.5 35.1245 24.579 35.2652 24.7197C35.4058 24.8603 35.4849 25.0511 35.4849 25.25V26H29.4849V25.25ZM41.4849 27.5V30.5H38.4849V29.75C38.4849 29.5511 38.4058 29.3603 38.2652 29.2197C38.1245 29.079 37.9338 29 37.7349 29C37.536 29 37.3452 29.079 37.2045 29.2197C37.0639 29.3603 36.9849 29.5511 36.9849 29.75V30.5H27.9849V29.75C27.9849 29.5511 27.9058 29.3603 27.7652 29.2197C27.6245 29.079 27.4338 29 27.2349 29C27.036 29 26.8452 29.079 26.7045 29.2197C26.5639 29.3603 26.4849 29.5511 26.4849 29.75V30.5H23.4849V27.5H41.4849ZM41.4849 38H23.4849V32H26.4849V32.75C26.4849 32.9489 26.5639 33.1397 26.7045 33.2803C26.8452 33.421 27.036 33.5 27.2349 33.5C27.4338 33.5 27.6245 33.421 27.7652 33.2803C27.9058 33.1397 27.9849 32.9489 27.9849 32.75V32H36.9849V32.75C36.9849 32.9489 37.0639 33.1397 37.2045 33.2803C37.3452 33.421 37.536 33.5 37.7349 33.5C37.9338 33.5 38.1245 33.421 38.2652 33.2803C38.4058 33.1397 38.4849 32.9489 38.4849 32.75V32H41.4849V38Z" fill="white"/>
</svg>
