<svg width="65" height="64" viewBox="0 0 65 64" fill="none" xmlns="http://www.w3.org/2000/svg">
<rect x="0.484863" width="64" height="64" rx="32" fill="#650B9D"/>
<path d="M39.2349 34.25C38.572 34.2496 37.9278 34.47 37.4039 34.8762L35.2374 33.1887C35.4009 32.8138 35.4852 32.4091 35.4849 32C35.4849 31.9306 35.4849 31.8612 35.4774 31.7928L36.7177 31.3794C37.1101 31.9846 37.7074 32.4281 38.4002 32.6288C39.093 32.8295 39.8349 32.7738 40.49 32.4721C41.1451 32.1703 41.6696 31.6426 41.9673 30.9857C42.2651 30.3287 42.3162 29.5865 42.1113 28.8949C41.9063 28.2034 41.4591 27.6088 40.8515 27.2201C40.2439 26.8314 39.5167 26.6747 38.8029 26.7785C38.0891 26.8824 37.4367 27.2399 36.9651 27.7856C36.4934 28.3313 36.2342 29.0287 36.2349 29.75C36.2349 29.8194 36.2349 29.8887 36.2424 29.9572L35.0021 30.3706C34.7302 29.9503 34.3574 29.6047 33.9177 29.3653C33.4781 29.1259 32.9855 29.0003 32.4849 29C32.3193 29.0003 32.1541 29.0141 31.9908 29.0412L31.3496 27.5937C31.9033 27.1513 32.2825 26.5272 32.4199 25.8319C32.5574 25.1366 32.4443 24.4151 32.1006 23.7953C31.7569 23.1754 31.2049 22.6973 30.5423 22.4456C29.8798 22.1939 29.1495 22.1849 28.481 22.4201C27.8124 22.6554 27.2488 23.1198 26.8899 23.731C26.531 24.3422 26.4001 25.0606 26.5204 25.7591C26.6407 26.4576 27.0044 27.0909 27.547 27.5468C28.0896 28.0028 28.7761 28.2519 29.4849 28.25C29.6504 28.2496 29.8156 28.2358 29.9789 28.2087L30.6202 29.6525C30.0764 30.0829 29.699 30.6888 29.5524 31.3666C29.4059 32.0445 29.4993 32.7522 29.8167 33.3687L27.4064 35.51C26.7999 35.1011 26.065 34.9274 25.3395 35.0216C24.614 35.1157 23.9478 35.4712 23.4657 36.0214C22.9836 36.5716 22.7187 37.2788 22.7207 38.0103C22.7227 38.7419 22.9914 39.4476 23.4765 39.9952C23.9616 40.5428 24.6297 40.8946 25.3557 40.9849C26.0816 41.0751 26.8156 40.8974 27.4199 40.4852C28.0243 40.073 28.4575 39.4546 28.6385 38.7458C28.8195 38.0369 28.7358 37.2865 28.403 36.635L30.8133 34.4937C31.3352 34.8451 31.9546 35.023 32.5834 35.0022C33.2122 34.9813 33.8184 34.7627 34.3158 34.3775L36.4824 36.065C36.3193 36.4388 36.2351 36.8422 36.2349 37.25C36.2349 37.8433 36.4108 38.4234 36.7405 38.9167C37.0701 39.41 37.5386 39.7946 38.0868 40.0216C38.635 40.2487 39.2382 40.3081 39.8201 40.1923C40.4021 40.0766 40.9366 39.7909 41.3562 39.3713C41.7758 38.9518 42.0615 38.4172 42.1772 37.8353C42.293 37.2533 42.2336 36.6501 42.0065 36.1019C41.7795 35.5538 41.3949 35.0852 40.9016 34.7556C40.4082 34.4259 39.8282 34.25 39.2349 34.25ZM39.2349 28.25C39.5315 28.25 39.8216 28.338 40.0682 28.5028C40.3149 28.6676 40.5072 28.9019 40.6207 29.176C40.7342 29.4501 40.7639 29.7517 40.7061 30.0426C40.6482 30.3336 40.5053 30.6009 40.2955 30.8106C40.0858 31.0204 39.8185 31.1633 39.5275 31.2212C39.2365 31.279 38.9349 31.2493 38.6608 31.1358C38.3868 31.0223 38.1525 30.83 37.9877 30.5833C37.8228 30.3367 37.7349 30.0467 37.7349 29.75C37.7349 29.3522 37.8929 28.9706 38.1742 28.6893C38.4555 28.408 38.8371 28.25 39.2349 28.25ZM27.9849 25.25C27.9849 24.9533 28.0728 24.6633 28.2377 24.4166C28.4025 24.17 28.6368 23.9777 28.9108 23.8642C29.1849 23.7506 29.4865 23.7209 29.7775 23.7788C30.0685 23.8367 30.3358 23.9796 30.5455 24.1893C30.7553 24.3991 30.8982 24.6664 30.9561 24.9574C31.0139 25.2483 30.9842 25.5499 30.8707 25.824C30.7572 26.0981 30.5649 26.3324 30.3182 26.4972C30.0716 26.662 29.7815 26.75 29.4849 26.75C29.087 26.75 28.7055 26.592 28.4242 26.3106C28.1429 26.0293 27.9849 25.6478 27.9849 25.25ZM25.7349 39.5C25.4382 39.5 25.1482 39.412 24.9015 39.2472C24.6548 39.0824 24.4626 38.8481 24.3491 38.574C24.2355 38.2999 24.2058 37.9983 24.2637 37.7074C24.3216 37.4164 24.4644 37.1491 24.6742 36.9393C24.884 36.7296 25.1513 36.5867 25.4422 36.5288C25.7332 36.4709 26.0348 36.5006 26.3089 36.6142C26.583 36.7277 26.8173 36.92 26.9821 37.1666C27.1469 37.4133 27.2349 37.7033 27.2349 38C27.2349 38.3978 27.0768 38.7793 26.7955 39.0606C26.5142 39.342 26.1327 39.5 25.7349 39.5ZM30.9849 32C30.9849 31.7033 31.0728 31.4133 31.2377 31.1666C31.4025 30.92 31.6368 30.7277 31.9108 30.6142C32.1849 30.5006 32.4865 30.4709 32.7775 30.5288C33.0685 30.5867 33.3358 30.7296 33.5455 30.9393C33.7553 31.1491 33.8982 31.4164 33.9561 31.7074C34.0139 31.9983 33.9842 32.2999 33.8707 32.574C33.7572 32.8481 33.5649 33.0824 33.3182 33.2472C33.0716 33.412 32.7815 33.5 32.4849 33.5C32.087 33.5 31.7055 33.342 31.4242 33.0606C31.1429 32.7793 30.9849 32.3978 30.9849 32ZM39.2349 38.75C38.9382 38.75 38.6482 38.662 38.4015 38.4972C38.1548 38.3324 37.9626 38.0981 37.8491 37.824C37.7355 37.5499 37.7058 37.2483 37.7637 36.9574C37.8216 36.6664 37.9644 36.3991 38.1742 36.1893C38.384 35.9796 38.6513 35.8367 38.9422 35.7788C39.2332 35.7209 39.5348 35.7506 39.8089 35.8642C40.083 35.9777 40.3173 36.17 40.4821 36.4166C40.6469 36.6633 40.7349 36.9533 40.7349 37.25C40.7349 37.6478 40.5768 38.0293 40.2955 38.3106C40.0142 38.592 39.6327 38.75 39.2349 38.75Z" fill="white"/>
</svg>
