<svg width="65" height="64" viewBox="0 0 65 64" fill="none" xmlns="http://www.w3.org/2000/svg">
<rect x="0.484863" width="64" height="64" rx="32" fill="#650B9D"/>
<path d="M42.2349 39.5C42.2349 39.6989 42.1558 39.8897 42.0152 40.0303C41.8745 40.171 41.6838 40.25 41.4849 40.25H23.4849C23.286 40.25 23.0952 40.171 22.9545 40.0303C22.8139 39.8897 22.7349 39.6989 22.7349 39.5V24.5C22.7349 24.3011 22.8139 24.1103 22.9545 23.9697C23.0952 23.829 23.286 23.75 23.4849 23.75C23.6838 23.75 23.8745 23.829 24.0152 23.9697C24.1558 24.1103 24.2349 24.3011 24.2349 24.5V34.6897L28.9542 29.9694C29.0239 29.8996 29.1066 29.8443 29.1977 29.8066C29.2887 29.7688 29.3863 29.7494 29.4849 29.7494C29.5834 29.7494 29.681 29.7688 29.7721 29.8066C29.8631 29.8443 29.9458 29.8996 30.0155 29.9694L32.4849 32.4397L37.4246 27.5H35.4849C35.286 27.5 35.0952 27.421 34.9545 27.2803C34.8139 27.1397 34.7349 26.9489 34.7349 26.75C34.7349 26.5511 34.8139 26.3603 34.9545 26.2197C35.0952 26.079 35.286 26 35.4849 26H39.2349C39.4338 26 39.6245 26.079 39.7652 26.2197C39.9058 26.3603 39.9849 26.5511 39.9849 26.75V30.5C39.9849 30.6989 39.9058 30.8897 39.7652 31.0303C39.6245 31.171 39.4338 31.25 39.2349 31.25C39.036 31.25 38.8452 31.171 38.7045 31.0303C38.5639 30.8897 38.4849 30.6989 38.4849 30.5V28.5603L33.0155 34.0306C32.9458 34.1004 32.8631 34.1557 32.7721 34.1934C32.681 34.2312 32.5834 34.2506 32.4849 34.2506C32.3863 34.2506 32.2887 34.2312 32.1977 34.1934C32.1066 34.1557 32.0239 34.1004 31.9542 34.0306L29.4849 31.5603L24.2349 36.8103V38.75H41.4849C41.6838 38.75 41.8745 38.829 42.0152 38.9697C42.1558 39.1103 42.2349 39.3011 42.2349 39.5Z" fill="white"/>
</svg>
