<svg width="65" height="64" viewBox="0 0 65 64" fill="none" xmlns="http://www.w3.org/2000/svg">
<rect x="0.484863" width="64" height="64" rx="32" fill="#650B9D"/>
<path d="M32.4849 22.25C30.5565 22.25 28.6714 22.8218 27.0681 23.8932C25.4647 24.9645 24.215 26.4873 23.477 28.2688C22.7391 30.0504 22.546 32.0108 22.9222 33.9021C23.2984 35.7934 24.227 37.5307 25.5906 38.8943C26.9541 40.2579 28.6914 41.1865 30.5827 41.5627C32.4741 41.9389 34.4345 41.7458 36.216 41.0078C37.9976 40.2699 39.5204 39.0202 40.5917 37.4168C41.663 35.8134 42.2349 33.9284 42.2349 32C42.2321 29.415 41.204 26.9366 39.3761 25.1087C37.5483 23.2808 35.0699 22.2527 32.4849 22.25ZM32.4849 40.25C30.8532 40.25 29.2581 39.7661 27.9014 38.8596C26.5447 37.9531 25.4873 36.6646 24.8629 35.1571C24.2384 33.6496 24.0751 31.9908 24.3934 30.3905C24.7117 28.7902 25.4975 27.3202 26.6512 26.1664C27.805 25.0126 29.275 24.2268 30.8754 23.9085C32.4757 23.5902 34.1345 23.7536 35.642 24.378C37.1495 25.0024 38.438 26.0598 39.3445 27.4165C40.251 28.7733 40.7349 30.3683 40.7349 32C40.7324 34.1873 39.8624 36.2843 38.3158 37.8309C36.7691 39.3775 34.6721 40.2475 32.4849 40.25ZM36.2349 33.875C36.2349 34.5712 35.9583 35.2389 35.466 35.7312C34.9737 36.2234 34.3061 36.5 33.6099 36.5H33.2349V37.25C33.2349 37.4489 33.1559 37.6397 33.0152 37.7803C32.8745 37.921 32.6838 38 32.4849 38C32.286 38 32.0952 37.921 31.9545 37.7803C31.8139 37.6397 31.7349 37.4489 31.7349 37.25V36.5H30.2349C30.036 36.5 29.8452 36.421 29.7045 36.2803C29.5639 36.1397 29.4849 35.9489 29.4849 35.75C29.4849 35.5511 29.5639 35.3603 29.7045 35.2197C29.8452 35.079 30.036 35 30.2349 35H33.6099C33.9082 35 34.1944 34.8815 34.4054 34.6705C34.6163 34.4595 34.7349 34.1734 34.7349 33.875C34.7349 33.5766 34.6163 33.2905 34.4054 33.0795C34.1944 32.8685 33.9082 32.75 33.6099 32.75H31.3599C30.6637 32.75 29.996 32.4734 29.5037 31.9812C29.0114 31.4889 28.7349 30.8212 28.7349 30.125C28.7349 29.4288 29.0114 28.7611 29.5037 28.2688C29.996 27.7766 30.6637 27.5 31.3599 27.5H31.7349V26.75C31.7349 26.5511 31.8139 26.3603 31.9545 26.2197C32.0952 26.079 32.286 26 32.4849 26C32.6838 26 32.8745 26.079 33.0152 26.2197C33.1559 26.3603 33.2349 26.5511 33.2349 26.75V27.5H34.7349C34.9338 27.5 35.1245 27.579 35.2652 27.7197C35.4059 27.8603 35.4849 28.0511 35.4849 28.25C35.4849 28.4489 35.4059 28.6397 35.2652 28.7803C35.1245 28.921 34.9338 29 34.7349 29H31.3599C31.0615 29 30.7754 29.1185 30.5644 29.3295C30.3534 29.5405 30.2349 29.8266 30.2349 30.125C30.2349 30.4234 30.3534 30.7095 30.5644 30.9205C30.7754 31.1315 31.0615 31.25 31.3599 31.25H33.6099C34.3061 31.25 34.9737 31.5266 35.466 32.0188C35.9583 32.5111 36.2349 33.1788 36.2349 33.875Z" fill="white"/>
</svg>
