<svg width="130" height="111" viewBox="0 0 130 111" fill="none" xmlns="http://www.w3.org/2000/svg">
<mask id="mask0_648_5433" style="mask-type:luminance" maskUnits="userSpaceOnUse" x="15" y="0" width="72" height="20">
<path d="M18.4989 8.57236C18.4989 5.33143 21.1368 2.69612 24.3777 2.69612C27.6186 2.69612 30.2539 5.33397 30.2539 8.57236C30.2539 11.8107 27.6161 14.4486 24.3777 14.4486C21.1343 14.4486 18.4989 11.8107 18.4989 8.57236ZM15.8003 8.57236C15.8003 13.3007 19.6468 17.1472 24.3752 17.1472C28.6525 17.1472 32.1975 13.9975 32.836 9.89761L45.7567 9.92042L52.3019 19.329H85.1824C85.9274 19.329 86.533 18.7259 86.533 17.9809C86.533 17.2359 85.9299 16.6329 85.1824 16.6329H53.7107L47.1655 7.22683L32.8284 7.20149C32.1671 3.12436 28.6348 1.25206e-06 24.3727 1.25206e-06C19.6468 -0.0025327 15.8003 3.84147 15.8003 8.57236Z" fill="white"/>
</mask>
<g mask="url(#mask0_648_5433)">
<path d="M86.5384 -0.00634766H15.8032V19.3252H86.5384V-0.00634766Z" fill="white"/>
</g>
<mask id="mask1_648_5433" style="mask-type:luminance" maskUnits="userSpaceOnUse" x="34" y="21" width="53" height="18">
<path d="M37.5512 29.8425C37.5512 26.6015 40.1865 23.9662 43.4274 23.9662C46.6683 23.9662 49.3037 26.6041 49.3037 29.8425C49.3037 33.0809 46.6683 35.7187 43.4274 35.7187C40.1865 35.7187 37.5512 33.0809 37.5512 29.8425ZM34.8525 29.8425C34.8525 34.5708 38.6991 38.4174 43.4274 38.4174C47.6946 38.4174 51.2345 35.2803 51.8858 31.1905H85.1819C85.9269 31.1905 86.5325 30.5875 86.5325 29.8425C86.5325 29.0975 85.9294 28.4919 85.1819 28.4919H51.8858C51.2345 24.4046 47.6946 21.2676 43.4274 21.2676C38.6991 21.265 34.8525 25.1116 34.8525 29.8425Z" fill="white"/>
</mask>
<g mask="url(#mask1_648_5433)">
<path d="M86.5325 21.2676H34.8525V38.4174H86.5325V21.2676Z" fill="white"/>
</g>
<mask id="mask2_648_5433" style="mask-type:luminance" maskUnits="userSpaceOnUse" x="0" y="32" width="87" height="19">
<path d="M3.19866 40.7463C3.19866 37.5054 5.83396 34.87 9.07489 34.87C12.3158 34.87 14.9511 37.5054 14.9511 40.7463C14.9511 43.9872 12.3158 46.6225 9.07489 46.6225C5.83396 46.6225 3.19866 43.9872 3.19866 40.7463ZM0.5 40.7463C0.5 45.4746 4.34654 49.3212 9.07489 49.3212C13.3421 49.3212 16.882 46.1816 17.5332 42.0943H26.0067L30.5045 50.9581H52.3826L56.3356 44.8234H85.1872C85.9321 44.8234 86.5377 44.2203 86.5377 43.4753C86.5377 42.7304 85.9347 42.1247 85.1872 42.1247H54.8659L50.9129 48.2594H32.1617L27.6614 39.3982H17.5332C16.882 35.3084 13.3421 32.1714 9.07489 32.1714C4.34654 32.1714 0.5 36.0179 0.5 40.7463Z" fill="white"/>
</mask>
<g mask="url(#mask2_648_5433)">
<path d="M86.5377 32.1714H0.5V50.9581H86.5377V32.1714Z" fill="white"/>
</g>
<mask id="mask3_648_5433" style="mask-type:luminance" maskUnits="userSpaceOnUse" x="19" y="54" width="68" height="20">
<path d="M22.1795 64.7449C22.1795 61.504 24.8174 58.8687 28.0558 58.8687C31.2967 58.8687 33.9345 61.504 33.9345 64.7449C33.9345 67.9858 31.2967 70.6212 28.0558 70.6212C24.8174 70.6212 22.1795 67.9858 22.1795 64.7449ZM67.5905 54.8727L62.4769 63.2575H36.4963C35.7894 59.2361 32.2798 56.1675 28.0583 56.1675C23.3299 56.1675 19.4834 60.014 19.4834 64.7424C19.4834 69.4707 23.3299 73.3173 28.0583 73.3173C32.3736 73.3173 35.9465 70.1093 36.5394 65.9536H63.9948L69.1083 57.5688H85.5308C86.2758 57.5688 86.8789 56.9657 86.8789 56.2182C86.8789 55.4732 86.2758 54.8701 85.5308 54.8701H67.5905V54.8727Z" fill="white"/>
</mask>
<g mask="url(#mask3_648_5433)">
<path d="M86.8729 54.8735H19.48V73.3207H86.8729V54.8735Z" fill="white"/>
</g>
<path d="M0.5 106.161L3.26763 104.182C4.26398 105.925 6.11726 106.922 8.26167 106.922C10.7655 106.922 12.6612 105.718 12.6612 104.017C12.6612 101.956 9.72817 100.71 7.12728 99.5898C4.51136 98.428 1.60705 97.0709 1.60705 93.5707C1.60705 89.9188 4.77513 87.3726 8.78786 87.3726C11.9696 87.3726 14.3505 88.9088 15.2634 91.3579L12.6625 93.1566C11.971 91.6477 10.4348 90.8044 8.81656 90.8044C6.7692 90.8044 5.13595 92.0768 5.13595 93.6541C5.13595 95.3966 7.19698 96.0199 9.90994 97.1816C13.4375 98.7315 16.1778 100.433 16.1778 103.947C16.1778 107.904 12.7459 110.45 8.22203 110.45C4.55372 110.45 1.77243 108.735 0.5 106.161Z" fill="white"/>
<path d="M19.1777 87.7744H26.636C30.9521 87.7744 34.481 91.0805 34.481 95.1343C34.481 99.106 30.9535 102.344 26.636 102.344H22.6793V110.078H19.1791V87.7744H19.1777ZM30.9795 95.1083C30.9795 92.9776 29.0291 91.2473 26.6346 91.2473H22.6779V98.8709L26.6346 98.8846C29.0291 98.8982 30.9795 97.1967 30.9795 95.1083Z" fill="white"/>
<path d="M40.7595 91.2199V96.9342H49.199V100.421H40.7595V106.592H50.5412V110.078H37.2593V87.7744H50.5412V91.2199H40.7595Z" fill="white"/>
<path d="M53.1157 98.9397C53.1157 92.6582 58.3599 87.3867 64.6277 87.3867C67.5197 87.4277 70.1889 88.6591 72.3757 90.7899L70.342 93.5425C68.7785 91.9789 66.7448 90.9416 64.558 90.9416C60.5179 90.9416 56.6583 94.4842 56.6583 98.9534C56.6583 103.45 60.574 106.923 64.5717 106.923C66.8541 106.923 68.8195 105.788 70.3557 104.266L72.3757 107.088C70.4527 108.984 68.0035 110.437 64.6837 110.437C58.3585 110.437 53.1157 105.235 53.1157 98.9397Z" fill="white"/>
<path d="M89.1288 91.2473H83.1521V110.078H79.6382V91.2473H73.6602V87.7744H89.1288V91.2473Z" fill="white"/>
<path d="M104.166 110.078L98.1605 101.444H95.4202V110.078H91.9214L91.9077 87.7744H98.8398C102.991 87.7744 106.394 90.9712 106.394 94.9415C106.394 97.8199 104.54 100.324 101.981 101.153L108.47 110.078H104.166ZM98.9218 98.5388C101.025 98.5524 102.781 96.8509 102.781 94.8582C102.781 92.7835 100.996 91.2473 98.9218 91.2473H95.4079V98.5388H98.9218Z" fill="white"/>
<path d="M124.185 106.688H113.628L112.107 110.078H108.316L118.804 87.3174H119.012L129.5 110.078H125.709L124.185 106.688ZM122.828 103.685L118.912 94.9683L114.983 103.685H122.828Z" fill="white"/>
</svg>
