<svg width="596" height="1144" viewBox="0 0 596 1144" fill="none" xmlns="http://www.w3.org/2000/svg">
<mask id="mask0_648_5689" style="mask-type:luminance" maskUnits="userSpaceOnUse" x="-66" y="5" width="219" height="684">
<path d="M43.2946 653.067C2.10318 653.067 -31.391 618.21 -31.391 575.342C-31.391 532.475 2.13539 497.618 43.2946 497.618C84.4538 497.618 117.98 532.475 117.98 575.342C117.98 618.21 84.4538 653.067 43.2946 653.067ZM43.2946 688.762C103.391 688.762 152.28 637.884 152.28 575.342C152.28 518.901 112.409 472.078 60.4282 463.464L60.4282 23.0583C60.4282 13.2045 52.7632 5.19425 43.2946 5.19425C33.8261 5.19425 26.1288 13.171 26.1288 23.0583L26.1288 463.464C-25.8194 472.078 -65.6904 518.901 -65.6904 575.342C-65.7226 637.884 -16.8339 688.762 43.2946 688.762Z" fill="white"/>
</mask>
<g mask="url(#mask0_648_5689)">
<path d="M-65.6904 5.19425L-65.6904 688.762H152.28L152.28 5.19425H-65.6904Z" fill="url(#paint0_linear_648_5689)" fill-opacity="0.2"/>
</g>
<mask id="mask1_648_5689" style="mask-type:luminance" maskUnits="userSpaceOnUse" x="72" y="5" width="240" height="1139">
<path d="M181.878 1107.45C140.687 1107.45 107.192 1072.59 107.192 1029.72C107.192 986.853 140.687 951.996 181.878 951.996C223.069 951.996 256.564 986.853 256.564 1029.72C256.564 1072.59 223.069 1107.45 181.878 1107.45ZM181.878 1143.14C241.974 1143.14 290.863 1092.26 290.863 1029.72C290.863 973.279 250.96 926.457 199.012 917.843L199.012 805.764L311.668 746.272L311.668 456.892L233.697 404.606L233.697 22.9877C233.697 13.1339 226.032 5.1236 216.564 5.1236C207.095 5.1236 199.398 13.1004 199.398 22.9877L199.398 424.046L277.369 476.331L277.369 724.353L164.744 783.878L164.744 917.843C112.764 926.457 72.8931 973.279 72.8931 1029.72C72.8931 1092.26 121.782 1143.14 181.878 1143.14Z" fill="white"/>
</mask>
<g mask="url(#mask1_648_5689)">
<path d="M72.8931 5.1236L72.8931 1143.14H311.668L311.668 5.1236H72.8931Z" fill="url(#paint1_linear_648_5689)" fill-opacity="0.2"/>
</g>
<mask id="mask2_648_5689" style="mask-type:luminance" maskUnits="userSpaceOnUse" x="361" y="0" width="235" height="893">
<path d="M486.896 856.384C445.704 856.384 412.21 821.493 412.21 778.659C412.21 735.792 445.704 700.901 486.896 700.901C528.087 700.901 561.581 735.792 561.581 778.659C561.581 821.493 528.087 856.384 486.896 856.384ZM361.421 255.736L467.991 323.372L467.991 667.016C416.88 676.367 377.879 722.787 377.879 778.626C377.879 841.167 426.767 892.045 486.864 892.045C546.96 892.045 595.849 841.167 595.849 778.626C595.849 721.547 555.076 674.289 502.258 666.446L502.258 303.295L395.689 235.659L395.689 18.4392C395.689 8.58532 388.024 0.608391 378.523 0.608391C369.054 0.608391 361.389 8.58532 361.389 18.4392L361.389 255.736H361.421Z" fill="white"/>
</mask>
<g mask="url(#mask2_648_5689)">
<path d="M361.431 0.684684L361.431 892.088H595.891L595.891 0.684684H361.431Z" fill="url(#paint2_linear_648_5689)" fill-opacity="0.2"/>
</g>
<defs>
<linearGradient id="paint0_linear_648_5689" x1="-65.6904" y1="346.978" x2="152.28" y2="346.978" gradientUnits="userSpaceOnUse">
<stop stop-color="white"/>
<stop offset="0.508333" stop-color="#CF95DA"/>
<stop offset="1" stop-color="#CCB8FA"/>
</linearGradient>
<linearGradient id="paint1_linear_648_5689" x1="72.8931" y1="574.132" x2="311.668" y2="574.132" gradientUnits="userSpaceOnUse">
<stop stop-color="white"/>
<stop offset="0.508333" stop-color="#CF95DA"/>
<stop offset="1" stop-color="#CCB8FA"/>
</linearGradient>
<linearGradient id="paint2_linear_648_5689" x1="361.431" y1="446.386" x2="595.891" y2="446.386" gradientUnits="userSpaceOnUse">
<stop stop-color="white"/>
<stop offset="0.508333" stop-color="#CF95DA"/>
<stop offset="1" stop-color="#CCB8FA"/>
</linearGradient>
</defs>
</svg>
