<svg width="37" height="37" viewBox="0 0 37 37" fill="none" xmlns="http://www.w3.org/2000/svg">
<path d="M18.9682 16.9726C18.5483 16.9722 18.1377 17.0963 17.7883 17.3292C17.4389 17.5622 17.1664 17.8935 17.0053 18.2813C16.8442 18.6691 16.8016 19.0959 16.8831 19.5079C16.9645 19.9198 17.1663 20.2984 17.4629 20.5957C17.7595 20.893 18.1375 21.0957 18.5493 21.1781C18.961 21.2606 19.388 21.2191 19.7762 21.0589C20.1644 20.8987 20.4963 20.627 20.7301 20.2782C20.9639 19.9293 21.089 19.519 21.0896 19.0991C21.09 18.8202 21.0355 18.5439 20.9291 18.286C20.8227 18.0282 20.6665 17.7938 20.4695 17.5963C20.2725 17.3989 20.0385 17.2421 19.7809 17.1351C19.5233 17.0281 19.2472 16.9729 18.9682 16.9726ZM18.9682 15.5563C19.6681 15.5567 20.3522 15.7646 20.9339 16.1536C21.5157 16.5427 21.9691 17.0955 22.2368 17.7421C22.5045 18.3888 22.5744 19.1003 22.4379 19.7867C22.3013 20.4731 21.9643 21.1037 21.4695 21.5986C20.9747 22.0936 20.3443 22.4307 19.6579 22.5675C18.9715 22.7043 18.26 22.6345 17.6132 22.367C16.9665 22.0995 16.4136 21.6463 16.0244 21.0646C15.6351 20.483 15.4271 19.799 15.4265 19.0991C15.4262 18.6339 15.5176 18.1732 15.6955 17.7434C15.8734 17.3136 16.1343 16.923 16.4632 16.5941C16.7922 16.2651 17.1827 16.0043 17.6125 15.8264C18.0424 15.6485 18.503 15.556 18.9682 15.5563ZM23.5702 15.3798C23.5702 15.5547 23.5183 15.7258 23.4211 15.8713C23.3239 16.0167 23.1857 16.1301 23.0241 16.1971C22.8624 16.2641 22.6845 16.2816 22.5129 16.2474C22.3413 16.2133 22.1837 16.129 22.06 16.0053C21.9362 15.8816 21.852 15.724 21.8178 15.5524C21.7837 15.3807 21.8012 15.2029 21.8682 15.0412C21.9351 14.8796 22.0485 14.7414 22.194 14.6442C22.3395 14.547 22.5105 14.4951 22.6855 14.4951C22.9196 14.4959 23.1438 14.5895 23.3091 14.7553C23.4743 14.9211 23.5671 15.1457 23.5671 15.3798H23.5702ZM18.9682 13.4339C17.2163 13.4339 16.931 13.4339 16.1161 13.4749C15.6817 13.4808 15.2514 13.5603 14.8435 13.71C14.5566 13.8208 14.2961 13.9904 14.0785 14.2077C13.861 14.4251 13.6912 14.6855 13.5801 14.9723C13.4307 15.3802 13.3516 15.8105 13.3461 16.2449C13.3092 17.027 13.3051 17.3 13.3051 19.097C13.3051 20.8489 13.3051 21.1343 13.3461 21.9492C13.352 22.3835 13.4311 22.8137 13.5801 23.2218C13.6906 23.5086 13.8599 23.7691 14.0771 23.9865C14.2944 24.2039 14.5547 24.3734 14.8415 24.4841C15.25 24.6342 15.681 24.714 16.1161 24.7202C16.8982 24.7571 17.1712 24.7612 18.9682 24.7612C20.7201 24.7612 21.0055 24.7612 21.8203 24.7202C22.2547 24.7142 22.6849 24.6351 23.093 24.4862C23.3816 24.3795 23.6428 24.2098 23.8576 23.9894C24.0793 23.7754 24.2498 23.514 24.3563 23.2248C24.5058 22.8162 24.5852 22.3853 24.5914 21.9502C24.6283 21.1681 24.6324 20.8951 24.6324 19.0981C24.6324 17.3462 24.6324 17.0609 24.5914 16.246C24.5853 15.8115 24.5059 15.3813 24.3563 14.9733C24.2496 14.6845 24.0795 14.4232 23.8586 14.2087C23.6446 13.9869 23.3832 13.8164 23.094 13.71C22.686 13.5606 22.2557 13.4815 21.8214 13.476C21.0362 13.438 20.7632 13.4339 18.9682 13.4339ZM18.9682 12.0176C20.8915 12.0176 21.1317 12.0248 21.886 12.0597C22.4735 12.0719 23.0547 12.1832 23.6051 12.3891C24.0782 12.5676 24.5064 12.8479 24.8592 13.2101C25.2209 13.5635 25.5011 13.9915 25.6803 14.4643C25.8858 15.0148 25.9972 15.5959 26.0097 16.1834C26.0426 16.9377 26.0518 17.1778 26.0518 19.1011C26.0518 21.0244 26.0446 21.2646 26.0097 22.0189C25.9972 22.6064 25.8858 23.1875 25.6803 23.738C25.4987 24.2086 25.2206 24.636 24.8639 24.9927C24.5072 25.3494 24.0798 25.6275 23.6092 25.8091C23.0587 26.0146 22.4776 26.126 21.8901 26.1385C21.1358 26.1714 20.8956 26.1806 18.9723 26.1806C17.049 26.1806 16.8089 26.1734 16.0546 26.1385C15.4671 26.126 14.886 26.0146 14.3355 25.8091C13.8649 25.6275 13.4375 25.3494 13.0808 24.9927C12.7241 24.636 12.446 24.2086 12.2644 23.738C12.0585 23.1877 11.9471 22.6064 11.935 22.0189C11.896 21.2605 11.8867 21.0203 11.8867 19.0991C11.8867 17.1778 11.8939 16.9356 11.9288 16.1813C11.9407 15.5931 12.0521 15.0112 12.2582 14.4602C12.4398 13.9896 12.7179 13.5622 13.0746 13.2055C13.4313 12.8488 13.8587 12.5707 14.3293 12.3891C14.8797 12.1832 15.4609 12.0718 16.0484 12.0597C16.8027 12.0268 17.0429 12.0176 18.9682 12.0176Z" fill="#DADADA"/>
<circle cx="18.5723" cy="18.7031" r="17.5" stroke="#DADADA"/>
</svg>
