<svg width="51" height="50" viewBox="0 0 51 50" fill="none" xmlns="http://www.w3.org/2000/svg">
<rect x="0.484863" width="50" height="50" rx="8" fill="white"/>
<path fill-rule="evenodd" clip-rule="evenodd" d="M23.031 41.3199V41.621C23.0321 42.0154 23.1893 42.3933 23.4682 42.6722C23.7471 42.951 24.125 43.1082 24.5194 43.1094H26.451C26.8454 43.1082 27.2233 42.951 27.5022 42.6722C27.781 42.3933 27.9382 42.0154 27.9394 41.621V41.3199H23.031ZM26.0789 9.64191C26.0789 9.79939 26.0164 9.95041 25.905 10.0618C25.7937 10.1731 25.6427 10.2357 25.4852 10.2357C25.3277 10.2357 25.1767 10.1731 25.0653 10.0618C24.954 9.95041 24.8914 9.79939 24.8914 9.64191V7.48438C24.8914 7.3269 24.954 7.17588 25.0653 7.06453C25.1767 6.95318 25.3277 6.89062 25.4852 6.89062C25.6427 6.89062 25.7937 6.95318 25.905 7.06453C26.0164 7.17588 26.0789 7.3269 26.0789 7.48438V9.64191ZM37.7475 17.0627C37.6115 17.1415 37.4499 17.163 37.298 17.1225C37.1462 17.0821 37.0167 16.983 36.938 16.847C36.8593 16.7111 36.8377 16.5494 36.8782 16.3976C36.9187 16.2458 37.0178 16.1163 37.1537 16.0376L39.0221 14.9588C39.0894 14.9198 39.1637 14.8945 39.2408 14.8842C39.318 14.8739 39.3963 14.879 39.4715 14.899C39.5467 14.919 39.6172 14.9537 39.6789 15.001C39.7407 15.0482 39.7926 15.1072 39.8316 15.1745C39.8705 15.2418 39.8959 15.3162 39.9061 15.3933C39.9164 15.4704 39.9114 15.5488 39.8913 15.6239C39.8713 15.6991 39.8367 15.7696 39.7894 15.8314C39.7421 15.8931 39.6832 15.945 39.6158 15.984L37.7475 17.0627ZM32.906 11.7875C32.8677 11.8555 32.8163 11.9152 32.7548 11.9633C32.6932 12.0113 32.6228 12.0467 32.5475 12.0673C32.4722 12.088 32.3936 12.0936 32.3162 12.0837C32.2388 12.0738 32.1641 12.0487 32.0964 12.0098C32.0287 11.9709 31.9694 11.919 31.9219 11.8571C31.8744 11.7952 31.8396 11.7244 31.8195 11.649C31.7995 11.5736 31.7946 11.4949 31.8051 11.4175C31.8156 11.3402 31.8414 11.2657 31.8808 11.1984L32.9596 9.32997C33.0386 9.19593 33.1673 9.09846 33.3178 9.05871C33.4682 9.01896 33.6283 9.04012 33.7632 9.11762C33.8982 9.19512 33.9971 9.32269 34.0386 9.47267C34.0801 9.62265 34.0607 9.78293 33.9848 9.91875L32.906 11.7875ZM13.817 16.0376C13.8849 16.0762 13.9445 16.128 13.9923 16.1898C14.0402 16.2516 14.0753 16.3222 14.0957 16.3977C14.1161 16.4731 14.1214 16.5519 14.1112 16.6294C14.101 16.7069 14.0756 16.7816 14.0365 16.8492C13.9973 16.9168 13.9451 16.9761 13.883 17.0234C13.8208 17.0708 13.7499 17.1054 13.6743 17.1253C13.5987 17.1451 13.5199 17.1498 13.4425 17.139C13.3651 17.1283 13.2905 17.1024 13.2232 17.0627L11.3545 15.9839C11.2865 15.9452 11.2269 15.8935 11.1791 15.8317C11.1313 15.7699 11.0961 15.6992 11.0757 15.6238C11.0553 15.5483 11.05 15.4696 11.0602 15.3921C11.0704 15.3146 11.0958 15.2399 11.1349 15.1723C11.1741 15.1046 11.2263 15.0454 11.2885 14.998C11.3506 14.9507 11.4215 14.9161 11.4971 14.8962C11.5727 14.8764 11.6515 14.8717 11.7289 14.8824C11.8063 14.8932 11.8809 14.9191 11.9482 14.9588L13.8166 16.0376H13.817ZM19.0895 11.1961C19.1683 11.332 19.1898 11.4937 19.1493 11.6455C19.1089 11.7973 19.0098 11.9268 18.8738 12.0055C18.7379 12.0843 18.5762 12.1058 18.4244 12.0653C18.2726 12.0249 18.1431 11.9258 18.0643 11.7898L16.9856 9.92135C16.9466 9.85403 16.9212 9.7797 16.911 9.70259C16.9007 9.62548 16.9058 9.5471 16.9258 9.47194C16.9458 9.39677 16.9805 9.32629 17.0277 9.26451C17.075 9.20273 17.134 9.15087 17.2013 9.11188C17.3372 9.03314 17.4989 9.01164 17.6507 9.05209C17.7259 9.07212 17.7964 9.10676 17.8581 9.15404C17.9199 9.20131 17.9718 9.26028 18.0108 9.3276L19.0895 11.1961ZM25.4852 12.738C26.688 12.738 27.8791 12.9749 28.9904 13.4353C30.1017 13.8956 31.1114 14.5703 31.9619 15.4208C32.8125 16.2714 33.4872 17.2811 33.9474 18.3924C34.4077 19.5037 34.6446 20.6948 34.6446 21.8977C34.6446 26.9847 31.3949 26.6806 30.9543 34.1789H20.0161C19.5754 26.6806 16.3258 26.9847 16.3258 21.8977C16.3257 20.6948 16.5626 19.5037 17.0229 18.3924C17.4832 17.2811 18.1579 16.2714 19.0084 15.4208C19.859 14.5703 20.8687 13.8956 21.98 13.4353C23.0913 12.9749 24.2823 12.738 25.4852 12.738ZM25.4852 29.1947L27.0819 22.5828H23.8884L25.4852 29.1947ZM28.2995 22.5828L26.751 28.9953L32.042 22.5828H28.2995ZM24.2194 28.9953L22.6708 22.5828H18.9283L24.2194 28.9953ZM18.765 21.3953H22.1332L20.4491 18.334L18.765 21.3953ZM24.1393 21.3953H26.831L25.4852 18.9488L24.1393 21.3953ZM28.8373 21.3953H32.2055L30.5214 18.334L28.8373 21.3953ZM21.4638 17.7191L23.1362 20.7594L24.8087 17.7191H21.4638ZM26.1618 17.7191L27.8344 20.7594L29.5066 17.7191H26.1618ZM20.0165 35.3661V35.6672C20.0177 36.0616 20.1749 36.4395 20.4538 36.7184C20.7326 36.9972 21.1105 37.1544 21.5049 37.1555H29.4664C29.8607 37.1544 30.2386 36.9972 30.5175 36.7184C30.7963 36.4395 30.9535 36.0616 30.9547 35.6672V35.3661H20.0165ZM27.978 40.1324C28.3724 40.1313 28.7503 39.9741 29.0292 39.6952C29.308 39.4163 29.4652 39.0384 29.4663 38.644V38.343H21.5045V38.644C21.5057 39.0384 21.6629 39.4163 21.9418 39.6952C22.2207 39.9741 22.5987 40.1313 22.9931 40.1324H27.978Z" fill="#650B9D"/>
</svg>
