<svg width="51" height="50" viewBox="0 0 51 50" fill="none" xmlns="http://www.w3.org/2000/svg">
<rect x="0.484863" width="50" height="50" rx="8" fill="white"/>
<path fill-rule="evenodd" clip-rule="evenodd" d="M34.8292 36.239C34.8292 37.0687 35.5017 37.7413 36.3314 37.7413C37.1611 37.7413 37.8337 37.0687 37.8337 36.239C37.8337 35.6193 37.4584 35.0873 36.9228 34.8577V31.0492H39.3944C39.5519 31.0492 39.7029 30.9866 39.8143 30.8753C39.9256 30.7639 39.9882 30.6129 39.9882 30.4554V26.1133H43.2974V23.7028L40.3456 22.5666C39.971 20.9942 39.3481 19.4915 38.5002 18.1152L39.7849 15.2226L36.3757 11.8135L33.4841 13.0977C32.1075 12.2496 30.6044 11.6266 29.0315 11.252L27.8956 8.3009H23.0743L21.9382 11.2524C20.3656 11.6269 18.8629 12.2499 17.4865 13.0979L14.5942 11.8133L11.1851 15.2225L12.4697 18.1151C11.6218 19.4913 10.9988 20.994 10.6242 22.5665L7.67236 23.7028V26.1133H10.9816V30.4553C10.9816 30.6128 11.0441 30.7638 11.1555 30.8752C11.2668 30.9865 11.4178 31.0491 11.5753 31.0491H14.0469V34.8576C13.5113 35.0873 13.1361 35.6193 13.1361 36.2389C13.1361 37.0686 13.8086 37.7412 14.6383 37.7412C15.468 37.7412 16.1406 37.0686 16.1406 36.2389C16.1406 35.6193 15.7654 35.0873 15.2298 34.8576C15.2298 33.3903 15.2321 31.9227 15.2321 30.4553C15.2321 30.2979 15.1695 30.1469 15.0582 30.0355C14.9468 29.9242 14.7958 29.8616 14.6383 29.8616H12.1691V26.1133H15.4782C15.4782 20.5863 19.9579 16.1067 25.485 16.1067C31.0119 16.1066 35.4916 20.5863 35.4916 26.1133L38.8007 26.1134V29.8617H36.3314C36.1739 29.8617 36.0229 29.9242 35.9116 30.0356C35.8002 30.1469 35.7377 30.298 35.7377 30.4554C35.7377 31.9227 35.74 33.3903 35.74 34.8577C35.2043 35.0873 34.8292 35.6193 34.8292 36.239ZM23.1511 27.2423C22.5756 27.2423 22.1049 26.7715 22.1049 26.196C22.1049 25.6206 22.5757 25.1498 23.1511 25.1498H27.8185C28.394 25.1498 28.8647 25.6206 28.8647 26.196C28.8647 26.7714 28.3939 27.2422 27.8185 27.2422H23.1511V27.2423ZM31.7023 32.3306C31.017 31.1273 29.9976 29.7936 28.6446 28.2712C28.3819 28.3762 28.1015 28.43 27.8186 28.4298H23.1512C22.8597 28.4298 22.5809 28.3734 22.3252 28.2712C20.9721 29.7935 19.9528 31.1273 19.2675 32.3306C16.5964 37.0205 20.3962 41.7838 25.4849 41.6981C30.5735 41.7838 34.3733 37.0205 31.7023 32.3306ZM26.0586 37.7922V38.0525C26.0587 38.1304 26.0433 38.2076 26.0135 38.2797C25.9836 38.3517 25.9399 38.4172 25.8848 38.4723C25.7734 38.5837 25.6224 38.6462 25.4649 38.6462C25.387 38.6462 25.3098 38.6309 25.2377 38.6011C25.1657 38.5712 25.1002 38.5275 25.0451 38.4724C24.9337 38.361 24.8712 38.21 24.8711 38.0525V37.7805C24.0018 37.5958 23.2944 37.02 23.0736 36.1345C23.0551 36.059 23.0515 35.9805 23.0633 35.9036C23.075 35.8267 23.1018 35.7529 23.1421 35.6863C23.1823 35.6198 23.2353 35.5618 23.298 35.5157C23.3607 35.4697 23.4318 35.4364 23.5074 35.4178C23.5829 35.3993 23.6614 35.3957 23.7383 35.4075C23.8152 35.4192 23.889 35.446 23.9556 35.4863C24.0221 35.5265 24.0801 35.5795 24.1261 35.6422C24.1722 35.7049 24.2055 35.776 24.224 35.8516C24.3599 36.3965 24.9036 36.6436 25.4247 36.66C25.4597 36.6577 25.4911 36.6611 25.5249 36.6604C25.9491 36.6503 26.7017 36.4697 26.6891 35.9394C26.6876 35.9146 26.6852 35.8898 26.6818 35.8651C26.6102 35.275 25.8589 35.1139 25.3749 35.0344C24.3288 34.8627 23.3043 34.3647 23.2462 33.1666C23.1966 32.1452 23.923 31.398 24.8711 31.1693V30.8881C24.8711 30.7306 24.9336 30.5796 25.045 30.4683C25.1563 30.3569 25.3074 30.2944 25.4648 30.2944C25.6223 30.2944 25.7733 30.3569 25.8847 30.4683C25.996 30.5796 26.0586 30.7306 26.0586 30.8881V31.1607L26.1073 31.1725C26.7655 31.3394 27.3644 31.7721 27.6788 32.521C27.7364 32.6656 27.7349 32.827 27.6748 32.9704C27.6146 33.114 27.5005 33.2281 27.357 33.2883C27.2135 33.3485 27.0521 33.3499 26.9075 33.2923C26.763 33.2347 26.6468 33.1227 26.584 32.9803C26.394 32.5276 25.9817 32.2906 25.5053 32.2807C25.4804 32.2823 25.4555 32.2825 25.4307 32.2811C24.9596 32.2959 24.4026 32.5669 24.429 33.111C24.4548 33.6416 25.1435 33.7963 25.5651 33.8655C26.6466 34.043 27.7111 34.4988 27.86 35.7259C27.8662 35.7771 27.8701 35.8392 27.8719 35.9116C27.8976 36.9856 27.0242 37.6128 26.0586 37.7922ZM22.8059 23.9891L22.2537 23.437C21.8357 23.0189 21.8357 22.3346 22.2537 21.9166C22.6094 21.561 23.1723 21.5009 23.5955 21.7725C23.9213 21.9816 24.3517 21.8034 24.4342 21.4251C24.5395 20.9425 24.9717 20.5782 25.4848 20.5782C25.9886 20.5782 26.428 20.9333 26.5354 21.4251C26.618 21.8033 27.0483 21.9816 27.3741 21.7725C27.7972 21.5009 28.3602 21.561 28.7158 21.9166C29.134 22.3346 29.134 23.0189 28.7158 23.437L28.1637 23.9892C28.0495 23.9713 27.9341 23.9624 27.8185 23.9624H23.1511C23.0338 23.9624 22.9185 23.9715 22.8059 23.9891Z" fill="#650B9D"/>
</svg>
