<svg width="51" height="50" viewBox="0 0 51 50" fill="none" xmlns="http://www.w3.org/2000/svg">
<rect x="0.484863" width="50" height="50" rx="8" fill="white"/>
<g clip-path="url(#clip0_648_5629)">
<path d="M39.6515 15.0833H32.5682V13.6666C32.5682 12.104 31.2975 10.8333 29.7349 10.8333H21.2349C19.6723 10.8333 18.4015 12.1039 18.4015 13.6666V15.0833H11.3182C9.75555 15.0833 8.48486 16.354 8.48486 17.9166V22.1666C8.48486 23.7293 9.75555 25 11.3182 25H22.6516V24.2916C22.6515 24.1986 22.6698 24.1064 22.7054 24.0205C22.7409 23.9345 22.7931 23.8564 22.8589 23.7906C22.9247 23.7248 23.0028 23.6726 23.0888 23.637C23.1748 23.6015 23.2669 23.5832 23.3599 23.5833H27.6099C27.703 23.5832 27.7951 23.6015 27.8811 23.637C27.967 23.6726 28.0452 23.7248 28.1109 23.7906C28.1767 23.8564 28.2289 23.9345 28.2645 24.0205C28.3001 24.1064 28.3183 24.1986 28.3183 24.2916V25H39.6516C41.2142 25 42.4849 23.7293 42.4849 22.1666V17.9166C42.4849 16.354 41.2142 15.0833 39.6515 15.0833ZM29.7349 15.0833H21.2349V13.6666H29.7349V15.0833ZM42.0919 25.7643C41.9738 25.7058 41.8418 25.6813 41.7105 25.6936C41.5793 25.706 41.4541 25.7546 41.349 25.8342C40.8454 26.2153 40.2588 26.4166 39.6514 26.4166H28.3182V28.5416C28.3183 28.6346 28.3 28.7268 28.2644 28.8128C28.2288 28.8987 28.1767 28.9768 28.1109 29.0426C28.0451 29.1084 27.967 29.1606 27.881 29.1962C27.795 29.2317 27.7029 29.25 27.6099 29.25H23.3599C23.2668 29.25 23.1747 29.2317 23.0887 29.1962C23.0027 29.1606 22.9246 29.1084 22.8588 29.0426C22.7931 28.9768 22.7409 28.8987 22.7053 28.8128C22.6697 28.7268 22.6514 28.6346 22.6515 28.5416V26.4166H11.3182C10.7109 26.4166 10.1243 26.2153 9.62068 25.8342C9.51586 25.754 9.3906 25.7049 9.25923 25.6926C9.12785 25.6802 8.99565 25.7051 8.87772 25.7643C8.75969 25.823 8.66039 25.9135 8.59098 26.0256C8.52158 26.1376 8.48483 26.2669 8.48486 26.3987L8.48486 36.3333C8.48486 37.8959 9.75555 39.1667 11.3182 39.1667H39.6516C41.2142 39.1667 42.4849 37.896 42.4849 36.3333V26.3987C42.4849 26.2668 42.4482 26.1376 42.3787 26.0255C42.3093 25.9135 42.21 25.823 42.0919 25.7643Z" fill="#650B9D"/>
</g>
<defs>
<clipPath id="clip0_648_5629">
<rect width="34" height="34" fill="white" transform="translate(8.48486 8)"/>
</clipPath>
</defs>
</svg>
