<svg width="36" height="36" viewBox="0 0 36 36" fill="none" xmlns="http://www.w3.org/2000/svg">
<path d="M14.2707 12.7915C14.2709 13.0838 14.1844 13.3695 14.0222 13.6126C13.8599 13.8556 13.6292 14.0451 13.3593 14.1571C13.0893 14.269 12.7922 14.2983 12.5056 14.2414C12.219 14.1844 11.9557 14.0437 11.749 13.8371C11.5424 13.6304 11.4017 13.3671 11.3447 13.0805C11.2878 12.7939 11.3171 12.4968 11.429 12.2268C11.541 11.9569 11.7305 11.7262 11.9735 11.5639C12.2166 11.4017 12.5023 11.3152 12.7946 11.3154C13.186 11.3157 13.5613 11.4713 13.838 11.7481C14.1148 12.0248 14.2704 12.4001 14.2707 12.7915ZM14.3149 15.3614H11.3616V24.6055H14.3149V15.3614ZM18.9817 15.3614H16.0428V24.6055H18.9519V19.7547C18.9519 17.0523 22.4735 16.8015 22.4735 19.7547V24.6055H25.3898V18.7463C25.3898 14.1905 20.1771 14.3601 18.9508 16.5979L18.9817 15.3614Z" fill="#DADADA"/>
<circle cx="18" cy="18" r="17.5" stroke="#DADADA"/>
</svg>
