<svg width="106" height="64" viewBox="0 0 106 64" fill="none" xmlns="http://www.w3.org/2000/svg">
<mask id="mask0_970_3045" style="mask-type:luminance" maskUnits="userSpaceOnUse" x="35" y="0" width="43" height="12">
<path d="M36.9857 5.09013C36.9857 3.16572 38.552 1.60092 40.4764 1.60092C42.4009 1.60092 43.9657 3.16723 43.9657 5.09013C43.9657 7.01304 42.3994 8.57935 40.4764 8.57935C38.5505 8.57935 36.9857 7.01304 36.9857 5.09013ZM35.3833 5.09013C35.3833 7.89776 37.6673 10.1818 40.4749 10.1818C43.0147 10.1818 45.1197 8.31153 45.4989 5.87705L53.1709 5.89059L57.0574 11.4773H76.5813C77.0237 11.4773 77.3833 11.1192 77.3833 10.6768C77.3833 10.2344 77.0252 9.87633 76.5813 9.87633H57.8939L54.0075 4.29118L45.4944 4.27613C45.1017 1.8552 43.0042 7.43453e-07 40.4734 7.43453e-07C37.6673 -0.00150388 35.3833 2.28101 35.3833 5.09013Z" fill="white"/>
</mask>
<g mask="url(#mask0_970_3045)">
<path d="M77.3848 -0.00146484H35.3833V11.4773H77.3848V-0.00146484Z" fill="url(#paint0_linear_970_3045)"/>
</g>
<mask id="mask1_970_3045" style="mask-type:luminance" maskUnits="userSpaceOnUse" x="43" y="11" width="35" height="12">
<path d="M45.4942 16.9461C45.4942 14.8139 47.2279 13.0801 49.3601 13.0801C51.4923 13.0801 53.2261 14.8156 53.2261 16.9461C53.2261 19.0766 51.4923 20.812 49.3601 20.812C47.2279 20.812 45.4942 19.0766 45.4942 16.9461ZM43.7188 16.9461C43.7188 20.0568 46.2494 22.5875 49.3601 22.5875C52.1675 22.5875 54.4964 20.5236 54.9248 17.833H76.8302C77.3203 17.833 77.7188 17.4362 77.7188 16.9461C77.7188 16.456 77.322 16.0575 76.8302 16.0575H54.9248C54.4964 13.3685 52.1675 11.3047 49.3601 11.3047C46.2494 11.303 43.7188 13.8336 43.7188 16.9461Z" fill="white"/>
</mask>
<g mask="url(#mask1_970_3045)">
<path d="M77.7188 11.3047H43.7188V22.5875H77.7188V11.3047Z" fill="url(#paint1_linear_970_3045)"/>
</g>
<mask id="mask2_970_3045" style="mask-type:luminance" maskUnits="userSpaceOnUse" x="28" y="17" width="50" height="11">
<path d="M30.223 21.9592C30.223 20.1135 31.7238 18.6126 33.5696 18.6126C35.4153 18.6126 36.9162 20.1135 36.9162 21.9592C36.9162 23.805 35.4153 25.3058 33.5696 25.3058C31.7238 25.3058 30.223 23.805 30.223 21.9592ZM28.686 21.9592C28.686 24.6521 30.8767 26.8428 33.5696 26.8428C35.9998 26.8428 38.0159 25.0547 38.3867 22.727H43.2126L45.7741 27.775H58.2341L60.4854 24.2812H76.9169C77.3411 24.2812 77.686 23.9378 77.686 23.5135C77.686 23.0892 77.3426 22.7443 76.9169 22.7443H59.6484L57.3971 26.2381H46.7179L44.1549 21.1915H38.3867C38.0159 18.8623 35.9998 17.0757 33.5696 17.0757C30.8767 17.0757 28.686 19.2664 28.686 21.9592Z" fill="white"/>
</mask>
<g mask="url(#mask2_970_3045)">
<path d="M77.686 17.0757H28.686V27.775H77.686V17.0757Z" fill="url(#paint2_linear_970_3045)"/>
</g>
<mask id="mask3_970_3045" style="mask-type:luminance" maskUnits="userSpaceOnUse" x="36" y="28" width="41" height="11">
<path d="M38.5938 33.8676C38.5938 31.9441 40.1594 30.38 42.0814 30.38C44.005 30.38 45.5706 31.9441 45.5706 33.8676C45.5706 35.7912 44.005 37.3553 42.0814 37.3553C40.1594 37.3553 38.5938 35.7912 38.5938 33.8676ZM65.5457 28.0083L62.5108 32.9848H47.091C46.6714 30.5981 44.5885 28.7768 42.0829 28.7768C39.2766 28.7768 36.9937 31.0598 36.9937 33.8661C36.9937 36.6725 39.2766 38.9554 42.0829 38.9554C44.6441 38.9554 46.7647 37.0515 47.1166 34.585H63.4117L66.4466 29.6085H76.1936C76.6357 29.6085 76.9937 29.2506 76.9937 28.8069C76.9937 28.3648 76.6357 28.0068 76.1936 28.0068H65.5457V28.0083Z" fill="white"/>
</mask>
<g mask="url(#mask3_970_3045)">
<path d="M76.9916 28.0078H36.9932V38.9564H76.9916V28.0078Z" fill="url(#paint3_linear_970_3045)"/>
</g>
<path d="M0.881836 60.2406L3.12685 58.6353C3.93506 60.0488 5.43839 60.8581 7.17786 60.8581C9.20891 60.8581 10.7466 59.8814 10.7466 58.5011C10.7466 56.8293 8.36744 55.8193 6.25768 54.9102C4.13573 53.9679 1.77984 52.867 1.77984 50.0277C1.77984 47.0654 4.34969 45 7.60469 45C10.1856 45 12.1169 46.2461 12.8575 48.2328L10.7477 49.6918C10.1867 48.4679 8.94062 47.7838 7.62797 47.7838C5.96722 47.7838 4.64238 48.816 4.64238 50.0954C4.64238 51.5089 6.31422 52.0144 8.51489 52.9568C11.3763 54.214 13.5992 55.5943 13.5992 58.4446C13.5992 61.6541 10.8153 63.7196 7.14571 63.7196C4.17009 63.7196 1.91399 62.3282 0.881836 60.2406Z" fill="black"/>
<path d="M16.0327 45.3252H22.0826C25.5837 45.3252 28.4463 48.007 28.4463 51.2953C28.4463 54.517 25.5848 57.1434 22.0826 57.1434H18.8731V63.4173H16.0338V45.3252H16.0327ZM25.6059 51.2742C25.6059 49.5458 24.0239 48.1423 22.0815 48.1423H18.872V54.3263L22.0815 54.3374C24.0239 54.3485 25.6059 52.9682 25.6059 51.2742Z" fill="black"/>
<path d="M33.5385 48.1201V52.7554H40.3844V55.5835H33.5385V60.5891H41.4731V63.4173H30.6992V45.3252H41.4731V48.1201H33.5385Z" fill="#A020F0"/>
<path d="M43.561 54.3827C43.561 49.2873 47.8149 45.0112 52.8992 45.0112C55.2451 45.0445 57.4103 46.0434 59.1841 47.7718L57.5345 50.0046C56.2662 48.7363 54.6165 47.8948 52.8427 47.8948C49.5655 47.8948 46.4347 50.7685 46.4347 54.3937C46.4347 58.0412 49.6109 60.8583 52.8537 60.8583C54.7052 60.8583 56.2994 59.9381 57.5456 58.7031L59.1841 60.9924C57.6243 62.5301 55.6376 63.7086 52.9447 63.7086C47.8138 63.7086 43.561 59.4891 43.561 54.3827Z" fill="#A020F0"/>
<path d="M72.7743 48.1423H67.9261V63.4173H65.0758V48.1423H60.2266V45.3252H72.7743V48.1423Z" fill="#A020F0"/>
<path d="M84.9728 63.4173L80.1014 56.4139H77.8785V63.4173H75.0404L75.0293 45.3252H80.6524C84.0193 45.3252 86.7799 47.9183 86.7799 51.139C86.7799 53.4738 85.2765 55.5048 83.2 56.1778L88.4639 63.4173H84.9728ZM80.7189 54.0569C82.4251 54.068 83.8497 52.6877 83.8497 51.0713C83.8497 49.3884 82.4018 48.1423 80.7189 48.1423H77.8685V54.0569H80.7189Z" fill="black"/>
<path d="M101.212 60.6685H92.6487L91.4148 63.4179H88.3394L96.8471 44.9556H97.0157L105.523 63.4179H102.448L101.212 60.6685ZM100.111 58.2328L96.9347 51.1618L93.7473 58.2328H100.111Z" fill="black"/>
<defs>
<linearGradient id="paint0_linear_970_3045" x1="30.0433" y1="5.72402" x2="75.909" y2="15.6617" gradientUnits="userSpaceOnUse">
<stop stop-color="#33094E"/>
<stop offset="1" stop-color="#8263B5"/>
</linearGradient>
<linearGradient id="paint1_linear_970_3045" x1="39.396" y1="16.9324" x2="77.0676" y2="23.6545" gradientUnits="userSpaceOnUse">
<stop stop-color="#33094E"/>
<stop offset="1" stop-color="#8263B5"/>
</linearGradient>
<linearGradient id="paint2_linear_970_3045" x1="22.4562" y1="22.4124" x2="74.6388" y2="36.5635" gradientUnits="userSpaceOnUse">
<stop stop-color="#33094E"/>
<stop offset="1" stop-color="#8263B5"/>
</linearGradient>
<linearGradient id="paint3_linear_970_3045" x1="31.9078" y1="33.4689" x2="75.5924" y2="42.919" gradientUnits="userSpaceOnUse">
<stop stop-color="#33094E"/>
<stop offset="1" stop-color="#8263B5"/>
</linearGradient>
</defs>
</svg>
