<svg width="33" height="33" viewBox="0 0 33 33" fill="none" xmlns="http://www.w3.org/2000/svg">
<path d="M28.7027 16.9312C28.7027 17.1964 28.5973 17.4508 28.4098 17.6383C28.2223 17.8259 27.9679 17.9312 27.7027 17.9312H14.7027C14.4375 17.9312 14.1831 17.8259 13.9956 17.6383C13.8081 17.4508 13.7027 17.1964 13.7027 16.9312C13.7027 16.666 13.8081 16.4116 13.9956 16.2241C14.1831 16.0366 14.4375 15.9312 14.7027 15.9312H27.7027C27.9679 15.9312 28.2223 16.0366 28.4098 16.2241C28.5973 16.4116 28.7027 16.666 28.7027 16.9312ZM14.7027 9.93122H27.7027C27.9679 9.93122 28.2223 9.82586 28.4098 9.63833C28.5973 9.45079 28.7027 9.19644 28.7027 8.93122C28.7027 8.666 28.5973 8.41165 28.4098 8.22411C28.2223 8.03658 27.9679 7.93122 27.7027 7.93122H14.7027C14.4375 7.93122 14.1831 8.03658 13.9956 8.22411C13.8081 8.41165 13.7027 8.666 13.7027 8.93122C13.7027 9.19644 13.8081 9.45079 13.9956 9.63833C14.1831 9.82586 14.4375 9.93122 14.7027 9.93122ZM27.7027 23.9312H5.70271C5.43749 23.9312 5.18314 24.0366 4.9956 24.2241C4.80806 24.4116 4.70271 24.666 4.70271 24.9312C4.70271 25.1964 4.80806 25.4508 4.9956 25.6383C5.18314 25.8259 5.43749 25.9312 5.70271 25.9312H27.7027C27.9679 25.9312 28.2223 25.8259 28.4098 25.6383C28.5973 25.4508 28.7027 25.1964 28.7027 24.9312C28.7027 24.666 28.5973 24.4116 28.4098 24.2241C28.2223 24.0366 27.9679 23.9312 27.7027 23.9312ZM9.70271 18.9312C9.9006 18.9314 10.0941 18.8728 10.2587 18.7629C10.4233 18.6531 10.5516 18.4968 10.6273 18.314C10.7031 18.1312 10.7229 17.93 10.6842 17.7359C10.6456 17.5418 10.5502 17.3636 10.4102 17.2237L6.11646 12.9312L10.4102 8.63872C10.5978 8.45108 10.7033 8.19658 10.7033 7.93122C10.7033 7.66586 10.5978 7.41136 10.4102 7.22372C10.2226 7.03608 9.96807 6.93066 9.70271 6.93066C9.43734 6.93066 9.18285 7.03608 8.99521 7.22372L3.99521 12.2237C3.90223 12.3166 3.82847 12.4269 3.77815 12.5483C3.72782 12.6697 3.70192 12.7998 3.70192 12.9312C3.70192 13.0626 3.72782 13.1928 3.77815 13.3142C3.82847 13.4356 3.90223 13.5458 3.99521 13.6387L8.99521 18.6387C9.08814 18.7316 9.19846 18.8052 9.31986 18.8554C9.44125 18.9055 9.57135 18.9313 9.70271 18.9312Z" fill="#650B9D"/>
</svg>
