<svg width="51" height="50" viewBox="0 0 51 50" fill="none" xmlns="http://www.w3.org/2000/svg">
<rect x="0.484863" width="50" height="50" rx="8" fill="#650B9D"/>
<path d="M25.4849 9.5625C17.4945 9.5625 11.2349 13.2141 11.2349 17.875V32.125C11.2349 36.7859 17.4945 40.4375 25.4849 40.4375C33.4753 40.4375 39.7349 36.7859 39.7349 32.125V17.875C39.7349 13.2141 33.4753 9.5625 25.4849 9.5625ZM37.3599 25C37.3599 26.428 36.1902 27.8841 34.1521 28.9959C31.8573 30.2473 28.7787 30.9375 25.4849 30.9375C22.191 30.9375 19.1124 30.2473 16.8176 28.9959C14.7796 27.8841 13.6099 26.428 13.6099 25V22.53C16.1422 24.7566 20.4721 26.1875 25.4849 26.1875C30.4976 26.1875 34.8275 24.7506 37.3599 22.53V25ZM34.1521 36.1209C31.8573 37.3723 28.7787 38.0625 25.4849 38.0625C22.191 38.0625 19.1124 37.3723 16.8176 36.1209C14.7796 35.0091 13.6099 33.553 13.6099 32.125V29.655C16.1422 31.8816 20.4721 33.3125 25.4849 33.3125C30.4976 33.3125 34.8275 31.8756 37.3599 29.655V32.125C37.3599 33.553 36.1902 35.0091 34.1521 36.1209Z" fill="white"/>
</svg>
