<svg width="51" height="50" viewBox="0 0 51 50" fill="none" xmlns="http://www.w3.org/2000/svg">
<rect x="0.484863" width="50" height="50" rx="8" fill="#650B9D"/>
<path d="M25.4982 14.5173C25.5648 13.5957 25.8691 12.7072 26.3816 11.9383C26.894 11.1695 27.5971 10.5467 28.4221 10.1307C29.2471 9.71465 30.1658 9.51965 31.0887 9.56471C32.0116 9.60977 32.907 9.89334 33.6875 10.3877C33.7768 10.4461 33.8486 10.5275 33.8956 10.6232C33.9425 10.719 33.9628 10.8256 33.9543 10.9319C33.9458 11.0383 33.9088 11.1403 33.8472 11.2274C33.7857 11.3145 33.7018 11.3834 33.6044 11.4268C32.2475 12.0373 31.0957 13.0265 30.2873 14.2757C29.479 15.5248 29.0484 16.9808 29.0474 18.4687C29.0474 18.6424 29.0474 18.816 29.0652 18.9867C29.0734 19.0946 29.0519 19.2027 29.0031 19.2993C28.9543 19.3959 28.8801 19.4773 28.7884 19.5348C28.6967 19.5922 28.5911 19.6235 28.4829 19.6253C28.3747 19.6271 28.2681 19.5993 28.1745 19.5449C27.2998 19.0445 26.5843 18.3069 26.1108 17.4173C25.6372 16.5278 25.4249 15.5224 25.4982 14.5173ZM42.1099 29.8405C42.112 30.519 41.924 31.1846 41.5672 31.7618C41.2104 32.339 40.6991 32.8047 40.0911 33.1061L40.0258 33.1358L34.262 35.591C34.205 35.616 34.1459 35.6359 34.0853 35.6503L24.5853 38.0253C24.4912 38.0495 24.3945 38.062 24.2974 38.0624H8.85986C8.22997 38.0624 7.62588 37.8122 7.18048 37.3668C6.73509 36.9214 6.48486 36.3173 6.48486 35.6874V29.7499C6.48486 29.12 6.73509 28.516 7.18048 28.0706C7.62588 27.6252 8.22997 27.3749 8.85986 27.3749H13.1185L16.4762 24.0158C16.9165 23.5736 17.44 23.2229 18.0166 22.9842C18.5931 22.7455 19.2113 22.6234 19.8353 22.6249H27.2661C27.8934 22.6249 28.5125 22.7668 29.0771 23.04C29.6417 23.3133 30.1372 23.7108 30.5263 24.2027C30.9154 24.6947 31.1882 25.2683 31.3241 25.8807C31.46 26.493 31.4555 27.1282 31.311 27.7386L37.5217 26.3106C38.0623 26.1675 38.6287 26.1503 39.177 26.2606C39.7253 26.3709 40.241 26.6056 40.6843 26.9466C41.1276 27.2877 41.4867 27.7259 41.7338 28.2277C41.981 28.7294 42.1096 29.2812 42.1099 29.8405ZM39.7349 29.8405C39.7347 29.6441 39.6893 29.4505 39.6021 29.2745C39.515 29.0986 39.3885 28.9451 39.2324 28.8259C39.0764 28.7067 38.895 28.6251 38.7023 28.5874C38.5096 28.5497 38.3108 28.5569 38.1213 28.6085L38.0753 28.6203L28.13 30.9077C28.0428 30.9272 27.9537 30.9372 27.8643 30.9374H23.1099C22.7949 30.9374 22.4929 30.8123 22.2702 30.5896C22.0475 30.3669 21.9224 30.0649 21.9224 29.7499C21.9224 29.435 22.0475 29.1329 22.2702 28.9102C22.4929 28.6875 22.7949 28.5624 23.1099 28.5624H27.2661C27.7385 28.5624 28.1916 28.3748 28.5256 28.0407C28.8597 27.7067 29.0474 27.2536 29.0474 26.7812C29.0474 26.3088 28.8597 25.8557 28.5256 25.5217C28.1916 25.1876 27.7385 24.9999 27.2661 24.9999H19.8353C19.5233 24.9989 19.2142 25.06 18.926 25.1795C18.6378 25.299 18.3762 25.4746 18.1565 25.6961L14.7974 29.0538V35.6874H24.1489L33.4159 33.3703L39.0565 30.9686C39.2618 30.8604 39.4336 30.6981 39.5532 30.4992C39.6728 30.3004 39.7356 30.0725 39.7349 29.8405ZM31.4224 18.4687C31.4224 19.5256 31.7358 20.5587 32.3229 21.4375C32.9101 22.3163 33.7447 23.0012 34.7211 23.4057C35.6976 23.8101 36.772 23.9159 37.8086 23.7098C38.8452 23.5036 39.7974 22.9946 40.5447 22.2473C41.2921 21.5 41.801 20.5478 42.0072 19.5112C42.2134 18.4746 42.1076 17.4002 41.7031 16.4237C41.2986 15.4473 40.6137 14.6127 39.7349 14.0255C38.8562 13.4383 37.823 13.1249 36.7661 13.1249C35.3489 13.1249 33.9897 13.6879 32.9875 14.6901C31.9854 15.6922 31.4224 17.0514 31.4224 18.4687Z" fill="white"/>
</svg>
