<svg width="723" height="695" viewBox="0 0 723 695" fill="none" xmlns="http://www.w3.org/2000/svg">
<mask id="mask0_648_5603" style="mask-type:luminance" maskUnits="userSpaceOnUse" x="145" y="0" width="671" height="184">
<path d="M171.124 81.1972C171.124 50.4993 196.11 25.5377 226.808 25.5377C257.506 25.5377 282.467 50.5233 282.467 81.1972C282.467 111.871 257.482 136.857 226.808 136.857C196.086 136.857 171.124 111.871 171.124 81.1972ZM145.562 81.1972C145.562 125.984 181.997 162.418 226.784 162.418C267.298 162.418 300.876 132.585 306.925 93.75L429.309 93.966L491.305 183.084H802.749C809.805 183.084 815.542 177.371 815.542 170.315C815.542 163.259 809.829 157.546 802.749 157.546H504.65L442.654 68.4524L306.853 68.2124C300.588 29.5939 267.13 1.18595e-05 226.76 1.18595e-05C181.997 -0.0239897 145.562 36.3863 145.562 81.1972Z" fill="white"/>
</mask>
<g mask="url(#mask0_648_5603)">
<path d="M815.594 -0.0612793H145.591V183.046H815.594V-0.0612793Z" fill="url(#paint0_linear_648_5603)" fill-opacity="0.2"/>
</g>
<mask id="mask1_648_5603" style="mask-type:luminance" maskUnits="userSpaceOnUse" x="326" y="201" width="490" height="163">
<path d="M351.588 282.67C351.588 251.972 376.55 227.01 407.248 227.01C437.946 227.01 462.907 251.996 462.907 282.67C462.907 313.344 437.946 338.329 407.248 338.329C376.55 338.329 351.588 313.344 351.588 282.67ZM326.026 282.67C326.026 327.457 362.461 363.891 407.248 363.891C447.666 363.891 481.196 334.177 487.365 295.439H802.745C809.802 295.439 815.538 289.726 815.538 282.67C815.538 275.613 809.826 269.877 802.745 269.877H487.365C481.196 231.162 447.666 201.448 407.248 201.448C362.461 201.424 326.026 237.859 326.026 282.67Z" fill="white"/>
</mask>
<g mask="url(#mask1_648_5603)">
<path d="M815.538 201.448H326.026V363.891H815.538V201.448Z" fill="url(#paint1_linear_648_5603)" fill-opacity="0.2"/>
</g>
<mask id="mask2_648_5603" style="mask-type:luminance" maskUnits="userSpaceOnUse" x="0" y="304" width="816" height="179">
<path d="M26.2018 385.949C26.2018 355.251 51.1634 330.29 81.8613 330.29C112.559 330.29 137.521 355.251 137.521 385.949C137.521 416.647 112.559 441.609 81.8613 441.609C51.1634 441.609 26.2018 416.647 26.2018 385.949ZM0.640137 385.949C0.640137 430.736 37.0745 467.17 81.8613 467.17C122.28 467.17 155.81 437.433 161.979 398.718H242.24L284.842 482.675H492.072L529.514 424.568H802.796C809.852 424.568 815.588 418.855 815.588 411.799C815.588 404.742 809.876 399.006 802.796 399.006H515.593L478.151 457.114H300.539L257.913 373.18H161.979C155.81 334.442 122.28 304.728 81.8613 304.728C37.0745 304.728 0.640137 341.162 0.640137 385.949Z" fill="white"/>
</mask>
<g mask="url(#mask2_648_5603)">
<path d="M815.588 304.728H0.640137V482.675H815.588V304.728Z" fill="url(#paint2_linear_648_5603)" fill-opacity="0.2"/>
</g>
<mask id="mask3_648_5603" style="mask-type:luminance" maskUnits="userSpaceOnUse" x="180" y="519" width="639" height="176">
<path d="M205.99 613.264C205.99 582.566 230.976 557.605 261.65 557.605C292.348 557.605 317.333 582.566 317.333 613.264C317.333 643.962 292.348 668.924 261.65 668.924C230.976 668.924 205.99 643.962 205.99 613.264ZM636.122 519.754L587.687 599.175H341.599C334.903 561.085 301.66 532.019 261.674 532.019C216.887 532.019 180.453 568.453 180.453 613.24C180.453 658.027 216.887 694.462 261.674 694.462C302.548 694.462 336.391 664.075 342.007 624.713H602.064L650.499 545.292H806.053C813.109 545.292 818.822 539.58 818.822 532.499C818.822 525.443 813.109 519.73 806.053 519.73H636.122V519.754Z" fill="white"/>
</mask>
<g mask="url(#mask3_648_5603)">
<path d="M818.767 519.761H180.422V694.493H818.767V519.761Z" fill="url(#paint3_linear_648_5603)" fill-opacity="0.2"/>
</g>
<defs>
<linearGradient id="paint0_linear_648_5603" x1="480.593" y1="-0.0612793" x2="480.593" y2="183.046" gradientUnits="userSpaceOnUse">
<stop stop-color="white"/>
<stop offset="0.508333" stop-color="#CF95DA"/>
<stop offset="1" stop-color="#CCB8FA"/>
</linearGradient>
<linearGradient id="paint1_linear_648_5603" x1="570.782" y1="201.448" x2="570.782" y2="363.891" gradientUnits="userSpaceOnUse">
<stop stop-color="white"/>
<stop offset="0.508333" stop-color="#CF95DA"/>
<stop offset="1" stop-color="#CCB8FA"/>
</linearGradient>
<linearGradient id="paint2_linear_648_5603" x1="408.114" y1="304.728" x2="408.114" y2="482.675" gradientUnits="userSpaceOnUse">
<stop stop-color="white"/>
<stop offset="0.508333" stop-color="#CF95DA"/>
<stop offset="1" stop-color="#CCB8FA"/>
</linearGradient>
<linearGradient id="paint3_linear_648_5603" x1="499.595" y1="519.761" x2="499.595" y2="694.493" gradientUnits="userSpaceOnUse">
<stop stop-color="white"/>
<stop offset="0.508333" stop-color="#CF95DA"/>
<stop offset="1" stop-color="#CCB8FA"/>
</linearGradient>
</defs>
</svg>
