<svg width="51" height="50" viewBox="0 0 51 50" fill="none" xmlns="http://www.w3.org/2000/svg">
<rect x="0.484863" width="50" height="50" rx="8" fill="#650B9D"/>
<path d="M13.9288 30.9375L19.706 20.9284L19.3735 20.3524C18.8765 19.5186 18.5551 18.5919 18.4291 17.6294C18.3031 16.6668 18.3751 15.6887 18.6407 14.755C18.9063 13.8213 19.3599 12.9517 19.9737 12.1996C20.5874 11.4475 21.3484 10.8288 22.2099 10.3813C23.0714 9.93393 24.0153 9.66728 24.9835 9.59776C25.9518 9.52824 26.924 9.65732 27.8406 9.97707C28.7572 10.2968 29.5988 10.8005 30.3137 11.4572C31.0286 12.1139 31.6018 12.9098 31.9981 13.7959C32.1225 14.0665 32.1429 14.3734 32.0556 14.6581C31.9683 14.9428 31.7793 15.1854 31.5246 15.3397C31.3798 15.4238 31.2189 15.4763 31.0524 15.4938C30.8859 15.5113 30.7175 15.4933 30.5584 15.4412C30.3993 15.3891 30.2531 15.3039 30.1292 15.1912C30.0054 15.0785 29.9067 14.941 29.8398 14.7875C29.5777 14.1952 29.1973 13.6627 28.7218 13.2228C28.2464 12.7829 27.686 12.4449 27.0751 12.2296C26.4642 12.0143 25.8157 11.9262 25.1695 11.9707C24.5233 12.0152 23.8931 12.1914 23.3175 12.4885C22.7419 12.7856 22.2332 13.1972 21.8225 13.6981C21.4119 14.1991 21.1081 14.7787 20.9297 15.4014C20.7513 16.024 20.7022 16.6766 20.7853 17.319C20.8684 17.9614 21.082 18.58 21.413 19.1367C21.4178 19.1426 21.4218 19.1491 21.4249 19.156L23.4778 22.7096C23.582 22.8901 23.6369 23.0949 23.6369 23.3034C23.6369 23.5118 23.582 23.7166 23.4778 23.8971L18.042 33.3125C17.7229 33.8497 17.205 34.2395 16.6005 34.3975C15.996 34.5554 15.3536 34.4688 14.8125 34.1564C14.2714 33.844 13.8752 33.3309 13.7098 32.7284C13.5444 32.1258 13.6231 31.4824 13.9288 30.9375ZM34.8585 25H33.0268L27.542 15.5C27.2229 14.9628 26.705 14.573 26.1005 14.415C25.496 14.2571 24.8536 14.3437 24.3125 14.6561C23.7714 14.9686 23.3752 15.4816 23.2098 16.0842C23.0444 16.6867 23.1231 17.3301 23.4288 17.875L28.5707 26.7813C28.6748 26.9616 28.8245 27.1114 29.0048 27.2156C29.1851 27.3198 29.3896 27.3748 29.5979 27.375H34.8867C37.5422 27.375 39.7777 29.5481 39.7347 32.2037C39.7142 33.4419 39.211 34.6231 38.3323 35.4957C37.4537 36.3682 36.269 36.8632 35.0307 36.875C34.7273 36.8714 34.4334 36.9807 34.2062 37.1819C33.979 37.383 33.8348 37.6615 33.8016 37.9631C33.7878 38.1272 33.8083 38.2923 33.8618 38.4481C33.9153 38.6038 34.0005 38.7468 34.1122 38.8678C34.2239 38.9888 34.3595 39.0853 34.5105 39.1511C34.6614 39.2169 34.8244 39.2506 34.9891 39.25C35.9362 39.2492 36.8737 39.0597 37.7468 38.6927C38.6199 38.3257 39.4112 37.7885 40.0744 37.1124C40.7377 36.4363 41.2596 35.6348 41.6098 34.7548C41.96 33.8748 42.1315 32.9339 42.1141 31.987C42.034 28.086 38.7668 25 34.8644 25H34.8585ZM37.3597 32.0107C37.3003 30.7327 36.1989 29.75 34.9208 29.75H23.5268C23.3183 29.75 23.1134 29.8048 22.9329 29.909C22.7523 30.0133 22.6023 30.1632 22.4981 30.3438L20.0993 34.5C19.7756 35.0583 19.3414 35.5448 18.8234 35.9297C18.3054 36.3147 17.7143 36.59 17.0864 36.7389C16.4584 36.8878 15.8066 36.9072 15.1709 36.7959C14.5352 36.6846 13.9288 36.4449 13.3888 36.0914C12.8489 35.7379 12.3866 35.2781 12.0302 34.74C11.6738 34.202 11.4308 33.5969 11.316 32.9618C11.2012 32.3267 11.2171 31.6749 11.3626 31.0461C11.5081 30.4173 11.7803 29.8248 12.1624 29.3047C12.347 29.0644 12.4353 28.7638 12.41 28.4619C12.3847 28.1599 12.2478 27.8782 12.0258 27.6719C11.9031 27.5626 11.7591 27.4799 11.6028 27.4291C11.4465 27.3783 11.2814 27.3605 11.1179 27.3769C10.9543 27.3932 10.796 27.4433 10.6528 27.5239C10.5097 27.6046 10.3848 27.7141 10.2861 27.8456C9.37015 29.0594 8.86991 30.5361 8.85966 32.0567C8.84556 33.6301 9.3527 35.164 10.3019 36.4189C11.2512 37.6738 12.5891 38.5792 14.107 38.9938C15.6249 39.4084 17.2373 39.3089 18.6927 38.7108C20.1481 38.1127 21.3645 37.0496 22.1522 35.6875L22.838 34.5H34.9847C35.3064 34.5004 35.6249 34.4354 35.9207 34.3089C36.2166 34.1825 36.4837 33.9973 36.7058 33.7645C36.9279 33.5317 37.1004 33.2562 37.2128 32.9547C37.3252 32.6533 37.3751 32.3321 37.3597 32.0107Z" fill="white"/>
</svg>
