<svg width="51" height="50" viewBox="0 0 51 50" fill="none" xmlns="http://www.w3.org/2000/svg">
<rect x="0.484863" width="50" height="50" rx="8" fill="#650B9D"/>
<path d="M41.908 17.6702C41.4673 18.1124 40.9435 18.463 40.3667 18.702C39.79 18.9409 39.1717 19.0635 38.5474 19.0626C38.1653 19.0623 37.7846 19.0165 37.4133 18.926L33.4604 26.2677C33.505 26.3093 33.5495 26.3508 33.5925 26.3939C34.2206 27.0221 34.6599 27.8139 34.8606 28.6792C35.0613 29.5446 35.0153 30.4489 34.7278 31.2894C34.4403 32.13 33.9229 32.873 33.2343 33.4343C32.5457 33.9955 31.7135 34.3524 30.8323 34.4644C29.951 34.5764 29.056 34.439 28.2489 34.0679C27.4418 33.6967 26.755 33.1067 26.2664 32.3648C25.7778 31.6229 25.5071 30.7589 25.4849 29.8708C25.4627 28.9827 25.69 28.1063 26.141 27.3409L23.1455 24.3454C22.4148 24.7748 21.5824 25.0008 20.7349 25.0001C20.3523 25.0003 19.9711 24.955 19.5993 24.865L15.6464 32.2037C15.691 32.2453 15.737 32.2868 15.78 32.3299C16.4442 32.9942 16.8965 33.8406 17.0797 34.762C17.2629 35.6834 17.1688 36.6384 16.8092 37.5063C16.4497 38.3742 15.8409 39.1159 15.0597 39.6378C14.2786 40.1597 13.3603 40.4383 12.4209 40.4383C11.4815 40.4383 10.5632 40.1597 9.78205 39.6378C9.00094 39.1159 8.39212 38.3742 8.03258 37.5063C7.67303 36.6384 7.5789 35.6834 7.76209 34.762C7.94528 33.8406 8.39757 32.9942 9.06176 32.3299C9.63969 31.7522 10.3569 31.3334 11.144 31.114C11.9311 30.8945 12.7615 30.8818 13.555 31.0771L17.5079 23.7354C17.4633 23.6938 17.4188 23.6522 17.3757 23.6092C16.9346 23.1681 16.5846 22.6444 16.3458 22.0681C16.107 21.4917 15.9841 20.8739 15.9841 20.2501C15.9841 19.6262 16.107 19.0084 16.3458 18.4321C16.5846 17.8557 16.9346 17.332 17.3757 16.8909C18.1929 16.0714 19.2812 15.5784 20.4362 15.5046C21.5912 15.4308 22.7334 15.7811 23.6483 16.4899C24.5632 17.1987 25.1878 18.2171 25.4049 19.3539C25.622 20.4907 25.4166 21.6676 24.8273 22.6636L27.8228 25.6591C28.8931 25.032 30.1653 24.8457 31.3704 25.1396L35.3233 17.7979C35.2788 17.7563 35.2328 17.7147 35.1897 17.6717C34.7485 17.2306 34.3986 16.7069 34.1598 16.1306C33.921 15.5542 33.7981 14.9364 33.7981 14.3126C33.7981 13.6887 33.921 13.0709 34.1598 12.4946C34.3986 11.9182 34.7485 11.3945 35.1897 10.9534C36.0806 10.0625 37.2889 9.56201 38.5489 9.56201C39.8088 9.56201 41.0171 10.0625 41.908 10.9534C42.7989 11.8443 43.2994 13.0526 43.2994 14.3126C43.2994 15.5725 42.7989 16.7808 41.908 17.6717V17.6702Z" fill="white"/>
</svg>
