<svg width="663" height="627" viewBox="0 0 663 627" fill="none" xmlns="http://www.w3.org/2000/svg">
<g filter="url(#filter0_d_970_2852)">
<path d="M507.407 471.081C469.793 499.534 424.137 515.348 376.983 516.258L374.179 370.9C390.637 370.583 406.572 365.063 419.7 355.133L507.407 471.081Z" fill="url(#paint0_linear_970_2852)" shape-rendering="crispEdges"/>
</g>
<g filter="url(#filter1_d_970_2852)">
<path d="M520.807 395.33C512.183 417.121 500.183 437.419 485.247 455.479L384.102 371.829C390.26 364.383 395.207 356.014 398.763 347.03L520.807 395.33Z" fill="url(#paint1_linear_970_2852)"/>
</g>
<g filter="url(#filter2_d_970_2852)">
<path d="M548.466 370.346C545.223 384.009 540.699 397.336 534.954 410.15L418.65 358C421.116 352.499 423.059 346.778 424.451 340.913L548.466 370.346Z" fill="url(#paint2_linear_970_2852)" shape-rendering="crispEdges"/>
</g>
<g filter="url(#filter3_d_970_2852)">
<path d="M538.519 342.99C537.173 352.251 535.245 361.417 532.748 370.436L461.527 350.72C463.197 344.685 464.487 338.552 465.388 332.356L538.519 342.99Z" fill="url(#paint3_linear_970_2852)" shape-rendering="crispEdges"/>
</g>
<g filter="url(#filter4_d_970_2852)">
<path d="M375.136 545.732C330.968 545.188 287.954 531.56 251.531 506.569C215.109 481.579 186.916 446.35 170.516 405.336C154.115 364.322 150.246 319.366 159.396 276.153C168.545 232.94 190.304 193.411 221.92 162.564L310.327 253.174C296.632 266.536 287.208 283.659 283.244 302.377C279.281 321.095 280.957 340.568 288.061 358.333C295.165 376.099 307.377 391.359 323.154 402.183C338.93 413.008 357.562 418.912 376.694 419.147L375.136 545.732Z" fill="url(#paint4_linear_970_2852)"/>
</g>
<g filter="url(#filter5_d_970_2852)">
<path d="M207.822 159.195C241.171 125.845 284.222 103.91 330.805 96.5318C377.388 89.1539 425.11 96.7124 467.133 118.124C509.156 139.536 543.322 173.701 564.733 215.724C586.145 257.747 593.704 305.47 586.326 352.052L460.109 332.062C463.265 312.133 460.032 291.717 450.872 273.74C441.712 255.762 427.095 241.146 409.118 231.986C391.14 222.826 370.724 219.592 350.796 222.748C330.867 225.905 312.45 235.289 298.183 249.556L207.822 159.195Z" fill="url(#paint5_linear_970_2852)"/>
</g>
<circle cx="108.441" cy="108.441" r="108.441" transform="matrix(-1 0 0 1 466.194 209.904)" fill="white"/>
<circle cx="83.5579" cy="83.5579" r="83.5579" transform="matrix(-1 0 0 1 439.775 236.324)" fill="#650B9D" fill-opacity="0.37"/>
<circle cx="75.2636" cy="75.2636" r="75.2636" transform="matrix(-1 0 0 1 432.402 244.926)" fill="#650B9D"/>
<path d="M195.102 379.098H192.042V384.966H187.074V379.098H175.122V376.434L186.75 360.126H192.042V375.174H195.102V379.098ZM187.074 375.174V365.742C186.534 366.678 185.994 367.542 185.418 368.37L180.558 375.174H187.074ZM209.394 359.622C216.414 359.622 219.042 364.698 219.042 372.546C219.042 380.322 216.414 385.47 209.394 385.47C202.338 385.47 199.71 380.322 199.71 372.546C199.71 364.698 202.338 359.622 209.394 359.622ZM209.394 381.762C212.418 381.762 213.786 378.81 213.786 372.546C213.786 366.21 212.418 363.33 209.394 363.33C206.334 363.33 204.966 366.21 204.966 372.546C204.966 378.81 206.334 381.762 209.394 381.762ZM229.266 359.694C232.722 359.694 234.846 361.89 234.846 365.598C234.846 369.306 232.722 371.538 229.266 371.538C225.846 371.538 223.722 369.306 223.722 365.598C223.722 361.89 225.846 359.694 229.266 359.694ZM230.13 384.966H226.278L242.406 360.126H246.258L230.13 384.966ZM229.266 362.322C227.934 362.322 227.214 363.474 227.214 365.598C227.214 367.722 227.934 368.91 229.266 368.91C230.598 368.91 231.354 367.722 231.354 365.598C231.354 363.474 230.598 362.322 229.266 362.322ZM243.054 373.626C246.51 373.626 248.634 375.822 248.634 379.53C248.634 383.238 246.51 385.47 243.054 385.47C239.634 385.47 237.474 383.238 237.474 379.53C237.474 375.822 239.634 373.626 243.054 373.626ZM243.054 376.254C241.722 376.254 241.002 377.406 241.002 379.53C241.002 381.654 241.722 382.842 243.054 382.842C244.386 382.842 245.106 381.654 245.106 379.53C245.106 377.406 244.386 376.254 243.054 376.254Z" fill="black"/>
<path d="M399.61 443.886V465.966H395.194V448.526L388.762 452.078V447.918L393.882 444.878C395.066 444.206 396.218 443.886 397.434 443.886H399.61ZM416.442 443.438C422.682 443.438 425.018 447.95 425.018 454.926C425.018 461.838 422.682 466.414 416.442 466.414C410.17 466.414 407.834 461.838 407.834 454.926C407.834 447.95 410.17 443.438 416.442 443.438ZM416.442 463.118C419.13 463.118 420.346 460.494 420.346 454.926C420.346 449.294 419.13 446.734 416.442 446.734C413.722 446.734 412.506 449.294 412.506 454.926C412.506 460.494 413.722 463.118 416.442 463.118ZM434.106 443.502C437.178 443.502 439.066 445.454 439.066 448.75C439.066 452.046 437.178 454.03 434.106 454.03C431.066 454.03 429.178 452.046 429.178 448.75C429.178 445.454 431.066 443.502 434.106 443.502ZM434.874 465.966H431.45L445.786 443.886H449.21L434.874 465.966ZM434.106 445.838C432.922 445.838 432.282 446.862 432.282 448.75C432.282 450.638 432.922 451.694 434.106 451.694C435.29 451.694 435.962 450.638 435.962 448.75C435.962 446.862 435.29 445.838 434.106 445.838ZM446.362 455.886C449.434 455.886 451.322 457.838 451.322 461.134C451.322 464.43 449.434 466.414 446.362 466.414C443.322 466.414 441.402 464.43 441.402 461.134C441.402 457.838 443.322 455.886 446.362 455.886ZM446.362 458.222C445.178 458.222 444.538 459.246 444.538 461.134C444.538 463.022 445.178 464.078 446.362 464.078C447.546 464.078 448.186 463.022 448.186 461.134C448.186 459.246 447.546 458.222 446.362 458.222Z" fill="black"/>
<path d="M497.146 354.222H501.818V355.966H493.77V354.926L497.482 351.294C498.97 349.838 499.562 349.054 499.562 347.998C499.562 347.022 499.002 346.334 497.978 346.334C496.874 346.334 496.346 347.022 496.202 348.35L496.186 348.51H493.994L494.01 348.35C494.234 345.982 495.706 344.686 498.186 344.686C500.618 344.686 501.898 345.982 501.898 347.87C501.898 349.262 501.21 350.254 499.194 352.222L497.146 354.222ZM506.666 344.734C508.202 344.734 509.146 345.71 509.146 347.358C509.146 349.006 508.202 349.998 506.666 349.998C505.146 349.998 504.202 349.006 504.202 347.358C504.202 345.71 505.146 344.734 506.666 344.734ZM507.05 355.966H505.338L512.506 344.926H514.218L507.05 355.966ZM506.666 345.902C506.074 345.902 505.754 346.414 505.754 347.358C505.754 348.302 506.074 348.83 506.666 348.83C507.258 348.83 507.594 348.302 507.594 347.358C507.594 346.414 507.258 345.902 506.666 345.902ZM512.794 350.926C514.33 350.926 515.274 351.902 515.274 353.55C515.274 355.198 514.33 356.19 512.794 356.19C511.274 356.19 510.314 355.198 510.314 353.55C510.314 351.902 511.274 350.926 512.794 350.926ZM512.794 352.094C512.202 352.094 511.882 352.606 511.882 353.55C511.882 354.494 512.202 355.022 512.794 355.022C513.386 355.022 513.706 354.494 513.706 353.55C513.706 352.606 513.386 352.094 512.794 352.094Z" fill="black"/>
<path d="M417.102 181.098H414.042V186.966H409.074V181.098H397.122V178.434L408.75 162.126H414.042V177.174H417.102V181.098ZM409.074 177.174V167.742C408.534 168.678 407.994 169.542 407.418 170.37L402.558 177.174H409.074ZM431.394 161.622C438.414 161.622 441.042 166.698 441.042 174.546C441.042 182.322 438.414 187.47 431.394 187.47C424.338 187.47 421.71 182.322 421.71 174.546C421.71 166.698 424.338 161.622 431.394 161.622ZM431.394 183.762C434.418 183.762 435.786 180.81 435.786 174.546C435.786 168.21 434.418 165.33 431.394 165.33C428.334 165.33 426.966 168.21 426.966 174.546C426.966 180.81 428.334 183.762 431.394 183.762ZM451.266 161.694C454.722 161.694 456.846 163.89 456.846 167.598C456.846 171.306 454.722 173.538 451.266 173.538C447.846 173.538 445.722 171.306 445.722 167.598C445.722 163.89 447.846 161.694 451.266 161.694ZM452.13 186.966H448.278L464.406 162.126H468.258L452.13 186.966ZM451.266 164.322C449.934 164.322 449.214 165.474 449.214 167.598C449.214 169.722 449.934 170.91 451.266 170.91C452.598 170.91 453.354 169.722 453.354 167.598C453.354 165.474 452.598 164.322 451.266 164.322ZM465.054 175.626C468.51 175.626 470.634 177.822 470.634 181.53C470.634 185.238 468.51 187.47 465.054 187.47C461.634 187.47 459.474 185.238 459.474 181.53C459.474 177.822 461.634 175.626 465.054 175.626ZM465.054 178.254C463.722 178.254 463.002 179.406 463.002 181.53C463.002 183.654 463.722 184.842 465.054 184.842C466.386 184.842 467.106 183.654 467.106 181.53C467.106 179.406 466.386 178.254 465.054 178.254Z" fill="black"/>
<path d="M501.426 375.666C503.286 376.086 504.306 377.186 504.306 378.986C504.306 381.586 502.066 383.246 498.966 383.246C495.846 383.246 493.906 381.786 493.606 378.926L493.586 378.726H496.346L496.386 378.926C496.586 380.326 497.546 381.186 498.946 381.186C500.406 381.186 501.386 380.346 501.386 379.086C501.386 377.706 500.446 376.966 498.646 376.926H498.186V375.006L498.646 374.986C500.106 374.926 501.066 374.106 501.066 372.806C501.066 371.686 500.326 370.946 499.106 370.946C497.866 370.946 497.106 371.826 496.966 373.126L496.946 373.326H494.206L494.226 373.126C494.466 370.726 496.186 368.886 499.406 368.886C502.406 368.886 503.986 370.466 503.986 372.486C503.986 374.086 503.086 375.226 501.426 375.666ZM510.126 368.926C512.046 368.926 513.226 370.146 513.226 372.206C513.226 374.266 512.046 375.506 510.126 375.506C508.226 375.506 507.046 374.266 507.046 372.206C507.046 370.146 508.226 368.926 510.126 368.926ZM510.606 382.966H508.466L517.426 369.166H519.566L510.606 382.966ZM510.126 370.386C509.386 370.386 508.986 371.026 508.986 372.206C508.986 373.386 509.386 374.046 510.126 374.046C510.866 374.046 511.286 373.386 511.286 372.206C511.286 371.026 510.866 370.386 510.126 370.386ZM517.786 376.666C519.706 376.666 520.886 377.886 520.886 379.946C520.886 382.006 519.706 383.246 517.786 383.246C515.886 383.246 514.686 382.006 514.686 379.946C514.686 377.886 515.886 376.666 517.786 376.666ZM517.786 378.126C517.046 378.126 516.646 378.766 516.646 379.946C516.646 381.126 517.046 381.786 517.786 381.786C518.526 381.786 518.926 381.126 518.926 379.946C518.926 378.766 518.526 378.126 517.786 378.126Z" fill="black"/>
<path d="M468.154 401.854C471.634 401.854 473.65 404.062 473.65 407.47C473.65 411.262 470.602 413.302 467.362 413.302C463.666 413.302 461.554 411.766 461.218 408.43L461.194 408.19H464.506L464.53 408.43C464.77 409.894 465.61 410.83 467.194 410.83C469.042 410.83 470.122 409.534 470.122 407.59C470.122 405.646 469.066 404.326 467.266 404.326C465.97 404.326 465.13 404.878 464.554 406.198H461.482L462.658 396.406H472.978V398.998H465.37L464.746 403.63L465.562 402.502C466.33 402.046 467.194 401.854 468.154 401.854ZM480.586 396.118C482.89 396.118 484.306 397.582 484.306 400.054C484.306 402.526 482.89 404.014 480.586 404.014C478.306 404.014 476.89 402.526 476.89 400.054C476.89 397.582 478.306 396.118 480.586 396.118ZM481.162 412.966H478.594L489.346 396.406H491.914L481.162 412.966ZM480.586 397.87C479.698 397.87 479.218 398.638 479.218 400.054C479.218 401.47 479.698 402.262 480.586 402.262C481.474 402.262 481.978 401.47 481.978 400.054C481.978 398.638 481.474 397.87 480.586 397.87ZM489.778 405.406C492.082 405.406 493.498 406.87 493.498 409.342C493.498 411.814 492.082 413.302 489.778 413.302C487.498 413.302 486.058 411.814 486.058 409.342C486.058 406.87 487.498 405.406 489.778 405.406ZM489.778 407.158C488.89 407.158 488.41 407.926 488.41 409.342C488.41 410.758 488.89 411.55 489.778 411.55C490.666 411.55 491.146 410.758 491.146 409.342C491.146 407.926 490.666 407.158 489.778 407.158Z" fill="black"/>
<defs>
<filter id="filter0_d_970_2852" x="349.179" y="345.133" width="173.229" height="201.125" filterUnits="userSpaceOnUse" color-interpolation-filters="sRGB">
<feFlood flood-opacity="0" result="BackgroundImageFix"/>
<feColorMatrix in="SourceAlpha" type="matrix" values="0 0 0 0 0 0 0 0 0 0 0 0 0 0 0 0 0 0 127 0" result="hardAlpha"/>
<feOffset dx="-5" dy="10"/>
<feGaussianBlur stdDeviation="10"/>
<feComposite in2="hardAlpha" operator="out"/>
<feColorMatrix type="matrix" values="0 0 0 0 0.396078 0 0 0 0 0.0431373 0 0 0 0 0.615686 0 0 0 0.2 0"/>
<feBlend mode="normal" in2="BackgroundImageFix" result="effect1_dropShadow_970_2852"/>
<feBlend mode="normal" in="SourceGraphic" in2="effect1_dropShadow_970_2852" result="shape"/>
</filter>
<filter id="filter1_d_970_2852" x="359.102" y="337.03" width="176.705" height="148.449" filterUnits="userSpaceOnUse" color-interpolation-filters="sRGB">
<feFlood flood-opacity="0" result="BackgroundImageFix"/>
<feColorMatrix in="SourceAlpha" type="matrix" values="0 0 0 0 0 0 0 0 0 0 0 0 0 0 0 0 0 0 127 0" result="hardAlpha"/>
<feOffset dx="-5" dy="10"/>
<feGaussianBlur stdDeviation="10"/>
<feComposite in2="hardAlpha" operator="out"/>
<feColorMatrix type="matrix" values="0 0 0 0 0.396078 0 0 0 0 0.0431373 0 0 0 0 0.615686 0 0 0 0.2 0"/>
<feBlend mode="normal" in2="BackgroundImageFix" result="effect1_dropShadow_970_2852"/>
<feBlend mode="normal" in="SourceGraphic" in2="effect1_dropShadow_970_2852" result="shape"/>
</filter>
<filter id="filter2_d_970_2852" x="393.65" y="330.913" width="169.816" height="109.237" filterUnits="userSpaceOnUse" color-interpolation-filters="sRGB">
<feFlood flood-opacity="0" result="BackgroundImageFix"/>
<feColorMatrix in="SourceAlpha" type="matrix" values="0 0 0 0 0 0 0 0 0 0 0 0 0 0 0 0 0 0 127 0" result="hardAlpha"/>
<feOffset dx="-5" dy="10"/>
<feGaussianBlur stdDeviation="10"/>
<feComposite in2="hardAlpha" operator="out"/>
<feColorMatrix type="matrix" values="0 0 0 0 0.396078 0 0 0 0 0.0431373 0 0 0 0 0.615686 0 0 0 0.2 0"/>
<feBlend mode="normal" in2="BackgroundImageFix" result="effect1_dropShadow_970_2852"/>
<feBlend mode="normal" in="SourceGraphic" in2="effect1_dropShadow_970_2852" result="shape"/>
</filter>
<filter id="filter3_d_970_2852" x="436.527" y="322.356" width="116.992" height="78.0807" filterUnits="userSpaceOnUse" color-interpolation-filters="sRGB">
<feFlood flood-opacity="0" result="BackgroundImageFix"/>
<feColorMatrix in="SourceAlpha" type="matrix" values="0 0 0 0 0 0 0 0 0 0 0 0 0 0 0 0 0 0 127 0" result="hardAlpha"/>
<feOffset dx="-5" dy="10"/>
<feGaussianBlur stdDeviation="10"/>
<feComposite in2="hardAlpha" operator="out"/>
<feColorMatrix type="matrix" values="0 0 0 0 0.396078 0 0 0 0 0.0431373 0 0 0 0 0.615686 0 0 0 0.2 0"/>
<feBlend mode="normal" in2="BackgroundImageFix" result="effect1_dropShadow_970_2852"/>
<feBlend mode="normal" in="SourceGraphic" in2="effect1_dropShadow_970_2852" result="shape"/>
</filter>
<filter id="filter4_d_970_2852" x="129.551" y="152.564" width="262.143" height="423.168" filterUnits="userSpaceOnUse" color-interpolation-filters="sRGB">
<feFlood flood-opacity="0" result="BackgroundImageFix"/>
<feColorMatrix in="SourceAlpha" type="matrix" values="0 0 0 0 0 0 0 0 0 0 0 0 0 0 0 0 0 0 127 0" result="hardAlpha"/>
<feOffset dx="-5" dy="10"/>
<feGaussianBlur stdDeviation="10"/>
<feComposite in2="hardAlpha" operator="out"/>
<feColorMatrix type="matrix" values="0 0 0 0 0.396078 0 0 0 0 0.0431373 0 0 0 0 0.615686 0 0 0 0.2 0"/>
<feBlend mode="normal" in2="BackgroundImageFix" result="effect1_dropShadow_970_2852"/>
<feBlend mode="normal" in="SourceGraphic" in2="effect1_dropShadow_970_2852" result="shape"/>
</filter>
<filter id="filter5_d_970_2852" x="182.822" y="83.782" width="421.254" height="298.271" filterUnits="userSpaceOnUse" color-interpolation-filters="sRGB">
<feFlood flood-opacity="0" result="BackgroundImageFix"/>
<feColorMatrix in="SourceAlpha" type="matrix" values="0 0 0 0 0 0 0 0 0 0 0 0 0 0 0 0 0 0 127 0" result="hardAlpha"/>
<feOffset dx="-5" dy="10"/>
<feGaussianBlur stdDeviation="10"/>
<feComposite in2="hardAlpha" operator="out"/>
<feColorMatrix type="matrix" values="0 0 0 0 0.396078 0 0 0 0 0.0431373 0 0 0 0 0.615686 0 0 0 0.2 0"/>
<feBlend mode="normal" in2="BackgroundImageFix" result="effect1_dropShadow_970_2852"/>
<feBlend mode="normal" in="SourceGraphic" in2="effect1_dropShadow_970_2852" result="shape"/>
</filter>
<linearGradient id="paint0_linear_970_2852" x1="330.845" y1="482.906" x2="475.345" y2="394.906" gradientUnits="userSpaceOnUse">
<stop stop-color="#2E086E"/>
<stop offset="1" stop-color="#DAC353" stop-opacity="0.74"/>
</linearGradient>
<linearGradient id="paint1_linear_970_2852" x1="453.345" y1="442.906" x2="487.845" y2="365.906" gradientUnits="userSpaceOnUse">
<stop stop-color="#CFB216"/>
<stop offset="1" stop-color="#AEB895"/>
</linearGradient>
<linearGradient id="paint2_linear_970_2852" x1="591.276" y1="430.811" x2="373.687" y2="341.744" gradientUnits="userSpaceOnUse">
<stop stop-color="#50710B"/>
<stop offset="1" stop-color="#50710B" stop-opacity="0"/>
</linearGradient>
<linearGradient id="paint3_linear_970_2852" x1="506.934" y1="459.821" x2="363.405" y2="343.686" gradientUnits="userSpaceOnUse">
<stop stop-color="#971C1C"/>
<stop offset="1" stop-color="#971C1C" stop-opacity="0"/>
</linearGradient>
<linearGradient id="paint4_linear_970_2852" x1="239.345" y1="240.406" x2="291.345" y2="460.406" gradientUnits="userSpaceOnUse">
<stop stop-color="#8A782A"/>
<stop offset="1" stop-color="#AFA0C7"/>
</linearGradient>
<linearGradient id="paint5_linear_970_2852" x1="518.345" y1="201.906" x2="326.845" y2="175.906" gradientUnits="userSpaceOnUse">
<stop stop-color="#63069C"/>
<stop offset="1" stop-color="#8A782A"/>
</linearGradient>
</defs>
</svg>
