<svg width="645" height="629" viewBox="0 0 645 629" fill="none" xmlns="http://www.w3.org/2000/svg">
<g filter="url(#filter0_d_1901_1363)">
<path d="M493.282 464.048C517.009 419.8 525.134 368.847 516.345 319.413C507.556 269.98 482.366 224.95 444.841 191.592L375.513 269.58C395.506 287.352 408.926 311.342 413.608 337.679C418.291 364.016 413.962 391.162 401.321 414.736L493.282 464.048Z" fill="url(#paint0_linear_1901_1363)" shape-rendering="crispEdges"/>
</g>
<g filter="url(#filter1_d_1901_1363)">
<path d="M378.068 545.636C422.134 528.144 459.49 497.082 484.728 456.948L399.096 403.099C385.289 425.055 364.854 442.047 340.747 451.616L378.068 545.636Z" fill="url(#paint1_linear_1901_1363)" shape-rendering="crispEdges"/>
</g>
<g filter="url(#filter2_d_1901_1363)">
<path d="M287.902 543.175C316.313 544.87 344.786 541.118 371.788 532.123L344.245 449.447C327.779 454.933 310.416 457.221 293.091 456.188L287.902 543.175Z" fill="url(#paint2_linear_1901_1363)" shape-rendering="crispEdges"/>
</g>
<g filter="url(#filter3_d_1901_1363)">
<path d="M208.33 507.879C233.182 521.751 260.457 530.744 288.685 534.374L298.743 456.175C280.48 453.826 262.834 448.008 246.756 439.034L208.33 507.879Z" fill="url(#paint3_linear_1901_1363)" shape-rendering="crispEdges"/>
</g>
<g filter="url(#filter4_d_1901_1363)">
<path d="M183.558 470.376C193.899 480.134 205.148 488.882 217.152 496.501L256.748 434.119C248.715 429.02 241.188 423.166 234.268 416.636L183.558 470.376Z" fill="url(#paint4_linear_1901_1363)" shape-rendering="crispEdges"/>
</g>
<g filter="url(#filter5_d_1901_1363)">
<path d="M460.523 196.288C439.785 175.549 415.165 159.099 388.069 147.875C360.973 136.652 331.931 130.875 302.603 130.875C273.274 130.875 244.233 136.652 217.137 147.875C190.041 159.099 165.421 175.549 144.682 196.288C123.944 217.026 107.493 241.646 96.2697 268.742C85.0462 295.838 79.2695 324.88 79.2695 354.208C79.2695 383.537 85.0462 412.578 96.2698 439.674C107.493 466.77 123.944 491.39 144.682 512.129L235.043 421.768C226.171 412.896 219.134 402.363 214.332 390.771C209.531 379.179 207.059 366.755 207.059 354.208C207.059 341.661 209.531 329.237 214.332 317.645C219.134 306.053 226.171 295.521 235.043 286.649C243.915 277.777 254.448 270.739 266.04 265.938C277.632 261.136 290.056 258.665 302.603 258.665C315.15 258.665 327.574 261.136 339.166 265.938C350.757 270.739 361.29 277.777 370.162 286.649L460.523 196.288Z" fill="url(#paint5_linear_1901_1363)" shape-rendering="crispEdges"/>
</g>
<circle cx="310.591" cy="355.437" r="108.441" fill="white"/>
<circle cx="312.128" cy="356.974" r="83.5579" fill="#650B9D" fill-opacity="0.37"/>
<circle cx="311.206" cy="357.281" r="75.2636" fill="#650B9D"/>
<path d="M441.497 338.594H452.009V342.518H433.901V340.178L442.253 332.006C445.601 328.73 446.933 326.966 446.933 324.59C446.933 322.394 445.673 320.846 443.369 320.846C440.885 320.846 439.697 322.394 439.373 325.382L439.337 325.742H434.405L434.441 325.382C434.945 320.054 438.257 317.138 443.837 317.138C449.309 317.138 452.189 320.054 452.189 324.302C452.189 327.434 450.641 329.666 446.105 334.094L441.497 338.594ZM467.345 317.174C474.365 317.174 476.993 322.25 476.993 330.098C476.993 337.874 474.365 343.022 467.345 343.022C460.289 343.022 457.661 337.874 457.661 330.098C457.661 322.25 460.289 317.174 467.345 317.174ZM467.345 339.314C470.369 339.314 471.737 336.362 471.737 330.098C471.737 323.762 470.369 320.882 467.345 320.882C464.285 320.882 462.917 323.762 462.917 330.098C462.917 336.362 464.285 339.314 467.345 339.314ZM487.217 317.246C490.673 317.246 492.797 319.442 492.797 323.15C492.797 326.858 490.673 329.09 487.217 329.09C483.797 329.09 481.673 326.858 481.673 323.15C481.673 319.442 483.797 317.246 487.217 317.246ZM488.081 342.518H484.229L500.357 317.678H504.209L488.081 342.518ZM487.217 319.874C485.885 319.874 485.165 321.026 485.165 323.15C485.165 325.274 485.885 326.462 487.217 326.462C488.549 326.462 489.305 325.274 489.305 323.15C489.305 321.026 488.549 319.874 487.217 319.874ZM501.005 331.178C504.461 331.178 506.585 333.374 506.585 337.082C506.585 340.79 504.461 343.022 501.005 343.022C497.585 343.022 495.425 340.79 495.425 337.082C495.425 333.374 497.585 331.178 501.005 331.178ZM501.005 333.806C499.673 333.806 498.953 334.958 498.953 337.082C498.953 339.206 499.673 340.394 501.005 340.394C502.337 340.394 503.057 339.206 503.057 337.082C503.057 334.958 502.337 333.806 501.005 333.806Z" fill="black"/>
<path d="M394.561 460.438V482.518H390.145V465.078L383.713 468.63V464.47L388.833 461.43C390.017 460.758 391.169 460.438 392.385 460.438H394.561ZM411.393 459.99C417.633 459.99 419.969 464.502 419.969 471.478C419.969 478.39 417.633 482.966 411.393 482.966C405.121 482.966 402.785 478.39 402.785 471.478C402.785 464.502 405.121 459.99 411.393 459.99ZM411.393 479.67C414.081 479.67 415.297 477.046 415.297 471.478C415.297 465.846 414.081 463.286 411.393 463.286C408.673 463.286 407.457 465.846 407.457 471.478C407.457 477.046 408.673 479.67 411.393 479.67ZM429.057 460.054C432.129 460.054 434.017 462.006 434.017 465.302C434.017 468.598 432.129 470.582 429.057 470.582C426.017 470.582 424.129 468.598 424.129 465.302C424.129 462.006 426.017 460.054 429.057 460.054ZM429.825 482.518H426.401L440.737 460.438H444.161L429.825 482.518ZM429.057 462.39C427.873 462.39 427.233 463.414 427.233 465.302C427.233 467.19 427.873 468.246 429.057 468.246C430.241 468.246 430.913 467.19 430.913 465.302C430.913 463.414 430.241 462.39 429.057 462.39ZM441.313 472.438C444.385 472.438 446.273 474.39 446.273 477.686C446.273 480.982 444.385 482.966 441.313 482.966C438.273 482.966 436.353 480.982 436.353 477.686C436.353 474.39 438.273 472.438 441.313 472.438ZM441.313 474.774C440.129 474.774 439.489 475.798 439.489 477.686C439.489 479.574 440.129 480.63 441.313 480.63C442.497 480.63 443.137 479.574 443.137 477.686C443.137 475.798 442.497 474.774 441.313 474.774Z" fill="black"/>
<path d="M215.657 459.678C217.145 460.014 217.961 460.894 217.961 462.334C217.961 464.414 216.169 465.742 213.689 465.742C211.193 465.742 209.641 464.574 209.401 462.286L209.385 462.126H211.593L211.625 462.286C211.785 463.406 212.553 464.094 213.673 464.094C214.841 464.094 215.625 463.422 215.625 462.414C215.625 461.31 214.873 460.718 213.433 460.686H213.065V459.15L213.433 459.134C214.601 459.086 215.369 458.43 215.369 457.39C215.369 456.494 214.777 455.902 213.801 455.902C212.809 455.902 212.201 456.606 212.089 457.646L212.073 457.806H209.881L209.897 457.646C210.089 455.726 211.465 454.254 214.041 454.254C216.441 454.254 217.705 455.518 217.705 457.134C217.705 458.414 216.985 459.326 215.657 459.678ZM222.617 454.286C224.153 454.286 225.097 455.262 225.097 456.91C225.097 458.558 224.153 459.55 222.617 459.55C221.097 459.55 220.153 458.558 220.153 456.91C220.153 455.262 221.097 454.286 222.617 454.286ZM223.001 465.518H221.289L228.457 454.478H230.169L223.001 465.518ZM222.617 455.454C222.025 455.454 221.705 455.966 221.705 456.91C221.705 457.854 222.025 458.382 222.617 458.382C223.209 458.382 223.545 457.854 223.545 456.91C223.545 455.966 223.209 455.454 222.617 455.454ZM228.745 460.478C230.281 460.478 231.225 461.454 231.225 463.102C231.225 464.75 230.281 465.742 228.745 465.742C227.225 465.742 226.265 464.75 226.265 463.102C226.265 461.454 227.225 460.478 228.745 460.478ZM228.745 461.646C228.153 461.646 227.833 462.158 227.833 463.102C227.833 464.046 228.153 464.574 228.745 464.574C229.337 464.574 229.657 464.046 229.657 463.102C229.657 462.158 229.337 461.646 228.745 461.646Z" fill="black"/>
<path d="M155.657 252.998C161.457 252.998 164.817 256.678 164.817 262.358C164.817 268.678 159.737 272.078 154.337 272.078C148.177 272.078 144.657 269.518 144.097 263.958L144.057 263.558H149.577L149.617 263.958C150.017 266.398 151.417 267.958 154.057 267.958C157.137 267.958 158.937 265.798 158.937 262.558C158.937 259.318 157.177 257.118 154.177 257.118C152.017 257.118 150.617 258.038 149.657 260.238H144.537L146.497 243.918H163.697V248.238H151.017L149.977 255.958L151.337 254.078C152.617 253.318 154.057 252.998 155.657 252.998ZM181.297 243.358C189.097 243.358 192.017 248.998 192.017 257.718C192.017 266.358 189.097 272.078 181.297 272.078C173.457 272.078 170.537 266.358 170.537 257.718C170.537 248.998 173.457 243.358 181.297 243.358ZM181.297 267.958C184.657 267.958 186.177 264.678 186.177 257.718C186.177 250.678 184.657 247.478 181.297 247.478C177.897 247.478 176.377 250.678 176.377 257.718C176.377 264.678 177.897 267.958 181.297 267.958ZM203.377 243.438C207.217 243.438 209.577 245.878 209.577 249.998C209.577 254.118 207.217 256.598 203.377 256.598C199.577 256.598 197.217 254.118 197.217 249.998C197.217 245.878 199.577 243.438 203.377 243.438ZM204.337 271.518H200.057L217.977 243.918H222.257L204.337 271.518ZM203.377 246.358C201.897 246.358 201.097 247.638 201.097 249.998C201.097 252.358 201.897 253.678 203.377 253.678C204.857 253.678 205.697 252.358 205.697 249.998C205.697 247.638 204.857 246.358 203.377 246.358ZM218.697 258.918C222.537 258.918 224.897 261.358 224.897 265.478C224.897 269.598 222.537 272.078 218.697 272.078C214.897 272.078 212.497 269.598 212.497 265.478C212.497 261.358 214.897 258.918 218.697 258.918ZM218.697 261.838C217.217 261.838 216.417 263.118 216.417 265.478C216.417 267.838 217.217 269.158 218.697 269.158C220.177 269.158 220.977 267.838 220.977 265.478C220.977 263.118 220.177 261.838 218.697 261.838Z" fill="black"/>
<path d="M255.717 485.258C258.617 485.258 260.297 487.098 260.297 489.938C260.297 493.098 257.757 494.798 255.057 494.798C251.977 494.798 250.217 493.518 249.937 490.738L249.917 490.538H252.677L252.697 490.738C252.897 491.958 253.597 492.738 254.917 492.738C256.457 492.738 257.357 491.658 257.357 490.038C257.357 488.418 256.477 487.318 254.977 487.318C253.897 487.318 253.197 487.778 252.717 488.878H250.157L251.137 480.718H259.737V482.878H253.397L252.877 486.738L253.557 485.798C254.197 485.418 254.917 485.258 255.717 485.258ZM266.077 480.478C267.997 480.478 269.177 481.698 269.177 483.758C269.177 485.818 267.997 487.058 266.077 487.058C264.177 487.058 262.997 485.818 262.997 483.758C262.997 481.698 264.177 480.478 266.077 480.478ZM266.557 494.518H264.417L273.377 480.718H275.517L266.557 494.518ZM266.077 481.938C265.337 481.938 264.937 482.578 264.937 483.758C264.937 484.938 265.337 485.598 266.077 485.598C266.817 485.598 267.237 484.938 267.237 483.758C267.237 482.578 266.817 481.938 266.077 481.938ZM273.737 488.218C275.657 488.218 276.837 489.438 276.837 491.498C276.837 493.558 275.657 494.798 273.737 494.798C271.837 494.798 270.637 493.558 270.637 491.498C270.637 489.438 271.837 488.218 273.737 488.218ZM273.737 489.678C272.997 489.678 272.597 490.318 272.597 491.498C272.597 492.678 272.997 493.338 273.737 493.338C274.477 493.338 274.877 492.678 274.877 491.498C274.877 490.318 274.477 489.678 273.737 489.678Z" fill="black"/>
<path d="M319.153 498.382C322.777 498.382 324.601 500.758 324.601 503.806C324.601 507.646 321.721 509.854 318.313 509.854C314.161 509.854 311.953 507.382 311.953 501.766C311.953 495.622 314.881 492.622 318.793 492.622C322.081 492.622 324.073 494.422 324.409 497.278L324.433 497.518H321.073L321.025 497.278C320.665 495.79 319.897 495.094 318.577 495.094C316.681 495.094 315.505 496.774 315.361 500.854L316.201 499.342C317.089 498.622 317.977 498.382 319.153 498.382ZM318.289 507.382C320.017 507.382 321.097 505.99 321.097 504.214C321.097 502.27 320.161 500.854 318.265 500.854C316.777 500.854 315.505 502.006 315.505 504.118C315.505 506.014 316.585 507.382 318.289 507.382ZM331.537 492.67C333.841 492.67 335.257 494.134 335.257 496.606C335.257 499.078 333.841 500.566 331.537 500.566C329.257 500.566 327.841 499.078 327.841 496.606C327.841 494.134 329.257 492.67 331.537 492.67ZM332.113 509.518H329.545L340.297 492.958H342.865L332.113 509.518ZM331.537 494.422C330.649 494.422 330.169 495.19 330.169 496.606C330.169 498.022 330.649 498.814 331.537 498.814C332.425 498.814 332.929 498.022 332.929 496.606C332.929 495.19 332.425 494.422 331.537 494.422ZM340.729 501.958C343.033 501.958 344.449 503.422 344.449 505.894C344.449 508.366 343.033 509.854 340.729 509.854C338.449 509.854 337.009 508.366 337.009 505.894C337.009 503.422 338.449 501.958 340.729 501.958ZM340.729 503.71C339.841 503.71 339.361 504.478 339.361 505.894C339.361 507.31 339.841 508.102 340.729 508.102C341.617 508.102 342.097 507.31 342.097 505.894C342.097 504.478 341.617 503.71 340.729 503.71Z" fill="black"/>
<defs>
<filter id="filter0_d_1901_1363" x="350.513" y="181.592" width="184.28" height="312.456" filterUnits="userSpaceOnUse" color-interpolation-filters="sRGB">
<feFlood flood-opacity="0" result="BackgroundImageFix"/>
<feColorMatrix in="SourceAlpha" type="matrix" values="0 0 0 0 0 0 0 0 0 0 0 0 0 0 0 0 0 0 127 0" result="hardAlpha"/>
<feOffset dx="-5" dy="10"/>
<feGaussianBlur stdDeviation="10"/>
<feComposite in2="hardAlpha" operator="out"/>
<feColorMatrix type="matrix" values="0 0 0 0 0.396078 0 0 0 0 0.0431373 0 0 0 0 0.615686 0 0 0 0.2 0"/>
<feBlend mode="normal" in2="BackgroundImageFix" result="effect1_dropShadow_1901_1363"/>
<feBlend mode="normal" in="SourceGraphic" in2="effect1_dropShadow_1901_1363" result="shape"/>
</filter>
<filter id="filter1_d_1901_1363" x="315.747" y="393.099" width="183.981" height="182.537" filterUnits="userSpaceOnUse" color-interpolation-filters="sRGB">
<feFlood flood-opacity="0" result="BackgroundImageFix"/>
<feColorMatrix in="SourceAlpha" type="matrix" values="0 0 0 0 0 0 0 0 0 0 0 0 0 0 0 0 0 0 127 0" result="hardAlpha"/>
<feOffset dx="-5" dy="10"/>
<feGaussianBlur stdDeviation="10"/>
<feComposite in2="hardAlpha" operator="out"/>
<feColorMatrix type="matrix" values="0 0 0 0 0.396078 0 0 0 0 0.0431373 0 0 0 0 0.615686 0 0 0 0.2 0"/>
<feBlend mode="normal" in2="BackgroundImageFix" result="effect1_dropShadow_1901_1363"/>
<feBlend mode="normal" in="SourceGraphic" in2="effect1_dropShadow_1901_1363" result="shape"/>
</filter>
<filter id="filter2_d_1901_1363" x="262.902" y="439.447" width="123.886" height="134.124" filterUnits="userSpaceOnUse" color-interpolation-filters="sRGB">
<feFlood flood-opacity="0" result="BackgroundImageFix"/>
<feColorMatrix in="SourceAlpha" type="matrix" values="0 0 0 0 0 0 0 0 0 0 0 0 0 0 0 0 0 0 127 0" result="hardAlpha"/>
<feOffset dx="-5" dy="10"/>
<feGaussianBlur stdDeviation="10"/>
<feComposite in2="hardAlpha" operator="out"/>
<feColorMatrix type="matrix" values="0 0 0 0 0.396078 0 0 0 0 0.0431373 0 0 0 0 0.615686 0 0 0 0.2 0"/>
<feBlend mode="normal" in2="BackgroundImageFix" result="effect1_dropShadow_1901_1363"/>
<feBlend mode="normal" in="SourceGraphic" in2="effect1_dropShadow_1901_1363" result="shape"/>
</filter>
<filter id="filter3_d_1901_1363" x="183.33" y="429.034" width="130.414" height="135.341" filterUnits="userSpaceOnUse" color-interpolation-filters="sRGB">
<feFlood flood-opacity="0" result="BackgroundImageFix"/>
<feColorMatrix in="SourceAlpha" type="matrix" values="0 0 0 0 0 0 0 0 0 0 0 0 0 0 0 0 0 0 127 0" result="hardAlpha"/>
<feOffset dx="-5" dy="10"/>
<feGaussianBlur stdDeviation="10"/>
<feComposite in2="hardAlpha" operator="out"/>
<feColorMatrix type="matrix" values="0 0 0 0 0.396078 0 0 0 0 0.0431373 0 0 0 0 0.615686 0 0 0 0.2 0"/>
<feBlend mode="normal" in2="BackgroundImageFix" result="effect1_dropShadow_1901_1363"/>
<feBlend mode="normal" in="SourceGraphic" in2="effect1_dropShadow_1901_1363" result="shape"/>
</filter>
<filter id="filter4_d_1901_1363" x="158.558" y="406.636" width="113.19" height="119.865" filterUnits="userSpaceOnUse" color-interpolation-filters="sRGB">
<feFlood flood-opacity="0" result="BackgroundImageFix"/>
<feColorMatrix in="SourceAlpha" type="matrix" values="0 0 0 0 0 0 0 0 0 0 0 0 0 0 0 0 0 0 127 0" result="hardAlpha"/>
<feOffset dx="-5" dy="10"/>
<feGaussianBlur stdDeviation="10"/>
<feComposite in2="hardAlpha" operator="out"/>
<feColorMatrix type="matrix" values="0 0 0 0 0.396078 0 0 0 0 0.0431373 0 0 0 0 0.615686 0 0 0 0.2 0"/>
<feBlend mode="normal" in2="BackgroundImageFix" result="effect1_dropShadow_1901_1363"/>
<feBlend mode="normal" in="SourceGraphic" in2="effect1_dropShadow_1901_1363" result="shape"/>
</filter>
<filter id="filter5_d_1901_1363" x="54.2695" y="120.875" width="421.253" height="421.254" filterUnits="userSpaceOnUse" color-interpolation-filters="sRGB">
<feFlood flood-opacity="0" result="BackgroundImageFix"/>
<feColorMatrix in="SourceAlpha" type="matrix" values="0 0 0 0 0 0 0 0 0 0 0 0 0 0 0 0 0 0 127 0" result="hardAlpha"/>
<feOffset dx="-5" dy="10"/>
<feGaussianBlur stdDeviation="10"/>
<feComposite in2="hardAlpha" operator="out"/>
<feColorMatrix type="matrix" values="0 0 0 0 0.396078 0 0 0 0 0.0431373 0 0 0 0 0.615686 0 0 0 0.2 0"/>
<feBlend mode="normal" in2="BackgroundImageFix" result="effect1_dropShadow_1901_1363"/>
<feBlend mode="normal" in="SourceGraphic" in2="effect1_dropShadow_1901_1363" result="shape"/>
</filter>
<linearGradient id="paint0_linear_1901_1363" x1="503.511" y1="296.445" x2="307.518" y2="358.806" gradientUnits="userSpaceOnUse">
<stop stop-color="#83700B"/>
<stop offset="1" stop-color="#83700B" stop-opacity="0"/>
</linearGradient>
<linearGradient id="paint1_linear_1901_1363" x1="453.438" y1="528.688" x2="325.336" y2="356.657" gradientUnits="userSpaceOnUse">
<stop stop-color="#2E086E"/>
<stop offset="1" stop-color="#2E086E" stop-opacity="0"/>
</linearGradient>
<linearGradient id="paint2_linear_1901_1363" x1="337.318" y1="564.936" x2="323.494" y2="432.534" gradientUnits="userSpaceOnUse">
<stop stop-color="#CFB216"/>
<stop offset="1" stop-color="#CFB216" stop-opacity="0"/>
</linearGradient>
<linearGradient id="paint3_linear_1901_1363" x1="223.963" y1="580.296" x2="305.371" y2="359.728" gradientUnits="userSpaceOnUse">
<stop stop-color="#50710B"/>
<stop offset="1" stop-color="#50710B" stop-opacity="0"/>
</linearGradient>
<linearGradient id="paint4_linear_1901_1363" x1="188.633" y1="497.968" x2="300.146" y2="350.82" gradientUnits="userSpaceOnUse">
<stop stop-color="#971C1C"/>
<stop offset="1" stop-color="#971C1C" stop-opacity="0"/>
</linearGradient>
<linearGradient id="paint5_linear_1901_1363" x1="173.271" y1="192.306" x2="339.466" y2="414.717" gradientUnits="userSpaceOnUse">
<stop stop-color="#63069C"/>
<stop offset="1" stop-color="#63069C" stop-opacity="0"/>
</linearGradient>
</defs>
</svg>
