<svg width="201" height="208" viewBox="0 0 201 208" fill="none" xmlns="http://www.w3.org/2000/svg">
<g opacity="0.4">
<mask id="mask0_1905_1342" style="mask-type:luminance" maskUnits="userSpaceOnUse" x="1" y="0" width="165" height="55">
<path d="M159.28 24.2328C159.28 15.0714 153.173 7.62189 145.669 7.62189C138.165 7.62189 132.064 15.0785 132.064 24.2328C132.064 33.3871 138.171 40.8437 145.669 40.8437C153.178 40.8437 159.28 33.3871 159.28 24.2328ZM165.528 24.2328C165.528 37.5989 156.622 48.4723 145.675 48.4723C135.772 48.4723 127.564 39.5687 126.086 27.979L96.1715 28.0435L81.0177 54.6396H4.89114C3.16632 54.6396 1.76421 52.9348 1.76421 50.8289C1.76421 48.723 3.16046 47.0182 4.89114 47.0182H77.7558L92.9096 20.4293L126.103 20.3576C127.635 8.83243 135.813 0.000491821 145.681 0.000491821C156.622 -0.00667114 165.528 10.8595 165.528 24.2328Z" fill="white"/>
</mask>
<g mask="url(#mask0_1905_1342)">
<path d="M1.75836 -0.0131836H165.528V54.6331H1.75836V-0.0131836Z" fill="#343330"/>
</g>
<mask id="mask1_1905_1342" style="mask-type:luminance" maskUnits="userSpaceOnUse" x="1" y="60" width="121" height="49">
<path d="M115.168 84.3572C115.168 75.1957 109.067 67.7462 101.563 67.7462C94.0595 67.7462 87.9581 75.2029 87.9581 84.3572C87.9581 93.5114 94.0595 100.968 101.563 100.968C109.067 100.968 115.168 93.5114 115.168 84.3572ZM121.416 84.3572C121.416 97.7233 112.51 108.597 101.563 108.597C91.6835 108.597 83.4877 99.7289 81.9799 88.1678H4.8912C3.16639 88.1678 1.76427 86.4631 1.76427 84.3572C1.76427 82.2512 3.16052 80.5393 4.8912 80.5393H81.9799C83.4877 68.9854 91.6835 60.1177 101.563 60.1177C112.51 60.1105 121.416 70.9839 121.416 84.3572Z" fill="white"/>
</mask>
<g mask="url(#mask1_1905_1342)">
<path d="M1.76427 60.1196H121.416V108.599H1.76427V60.1196Z" fill="#343330"/>
</g>
<mask id="mask2_1905_1342" style="mask-type:luminance" maskUnits="userSpaceOnUse" x="1" y="90" width="200" height="55">
<path d="M194.719 115.187C194.719 106.026 188.618 98.5763 181.114 98.5763C173.611 98.5763 167.509 106.026 167.509 115.187C167.509 124.349 173.611 131.798 181.114 131.798C188.618 131.798 194.719 124.349 194.719 115.187ZM200.967 115.187C200.967 128.553 192.062 139.427 181.114 139.427C171.235 139.427 163.039 130.552 161.531 118.998H141.913L131.499 144.054H80.8462L71.6941 126.712H4.89558C3.17076 126.712 1.76865 125.008 1.76865 122.902C1.76865 120.796 3.1649 119.084 4.89558 119.084H75.0968L84.2489 136.425H127.663L138.082 111.377H161.531C163.039 99.8155 171.235 90.9478 181.114 90.9478C192.062 90.9478 200.967 101.821 200.967 115.187Z" fill="white"/>
</mask>
<g mask="url(#mask2_1905_1342)">
<path d="M1.76865 90.9478H200.967V144.054H1.76865V90.9478Z" fill="#343330"/>
</g>
<mask id="mask3_1905_1342" style="mask-type:luminance" maskUnits="userSpaceOnUse" x="0" y="155" width="158" height="53">
<path d="M150.762 183.02C150.762 173.859 144.655 166.409 137.157 166.409C129.654 166.409 123.546 173.859 123.546 183.02C123.546 192.181 129.654 199.631 137.157 199.631C144.655 199.631 150.762 192.181 150.762 183.02ZM45.6247 155.113L57.4638 178.815H117.615C119.252 167.448 127.377 158.773 137.151 158.773C148.099 158.773 157.004 169.647 157.004 183.013C157.004 196.379 148.099 207.252 137.151 207.252C127.16 207.252 118.888 198.184 117.515 186.437H53.9496L42.1105 162.735H4.0883C2.36349 162.735 0.967209 161.03 0.967209 158.917C0.967209 156.811 2.36349 155.106 4.0883 155.106H45.6247V155.113Z" fill="white"/>
</mask>
<g mask="url(#mask3_1905_1342)">
<path d="M0.978958 155.112H157.01V207.258H0.978958V155.112Z" fill="#343330"/>
</g>
</g>
</svg>
