<svg width="37" height="37" viewBox="0 0 37 37" fill="none" xmlns="http://www.w3.org/2000/svg">
<path d="M27.1509 13.9869C27.0482 13.6075 26.848 13.2616 26.5701 12.9835C26.2923 12.7055 25.9465 12.505 25.5672 12.4021C23.234 12.117 20.8844 11.9886 18.5342 12.0177C16.1846 11.9898 13.8358 12.1134 11.5022 12.3877C11.123 12.4958 10.778 12.6997 10.5004 12.9798C10.2228 13.2599 10.0221 13.6067 9.91737 13.9869C9.66228 15.4135 9.53843 16.8605 9.54738 18.3097C9.53794 19.7589 9.66179 21.2059 9.91737 22.6325C10.02 23.0118 10.2201 23.3576 10.4977 23.6356C10.7754 23.9136 11.121 24.1142 11.5001 24.2173C13.8329 24.5024 16.1821 24.6311 18.5321 24.6027C20.8816 24.6306 23.2305 24.507 25.5641 24.2327C25.9435 24.13 26.2894 23.9298 26.5674 23.6519C26.8455 23.374 27.0459 23.0283 27.1489 22.6489C27.4039 21.2223 27.5278 19.7753 27.5189 18.3261C27.5367 16.8712 27.4135 15.418 27.1509 13.9869ZM16.7417 21.0045V15.6149L21.4211 18.3097L16.7417 21.0045Z" fill="#DADADA"/>
<circle cx="18.2852" cy="18.7031" r="17.5" stroke="#DADADA"/>
</svg>
